<svg xmlns="http://www.w3.org/2000/svg" version="1.1" xmlns:xlink="http://www.w3.org/1999/xlink" width="512" height="512" x="0" y="0" viewBox="0 0 74 74" style="enable-background:new 0 0 512 512" xml:space="preserve" class=""><g transform="matrix(0.9100000000000001,0,0,0.9100000000000001,3.3299388027191057,3.3299997425079297)"><path fill="#f1b44c" d="m59.92 33.09 4.43.74c.88.15 1.47.98 1.33 1.86l-1.95 11.64c-.15.88-.98 1.47-1.86 1.33l-4.71-.76z" opacity="1" data-original="#d9e1f4" class=""></path><path d="M62.13 49.05c-.11 0-.22-.01-.33-.03l-4.7-.76c-.1-.02-.19-.07-.25-.15s-.08-.19-.06-.28l2.76-14.8c.04-.2.23-.34.43-.3l4.43.74c1.08.18 1.81 1.21 1.63 2.29L64.09 47.4c-.16.96-1.01 1.65-1.96 1.65zm-4.53-1.47 4.33.7c.68.11 1.32-.34 1.43-1.02l1.95-11.64c.11-.67-.34-1.31-1.02-1.43l-4.06-.68z" fill="#333333" opacity="1" data-original="#000000" class=""></path><path fill="#000000" d="M56.11 52.76C54.39 58.73 50.3 63.74 46.08 67c-2.97 2.27-5.91 1.99-9.15 1.99V5c1.61 0 3.22.14 4.8.44 6.24 1.19 16.61 4.71 18.64 15.18.45 6.9-.63 19.67-4.26 32.14z" opacity="0" data-original="#c0cbe8" class=""></path><path d="M48.22 25.76c-.1 0-.19-.04-.27-.11a.368.368 0 0 1 0-.53l3.53-3.53c.07-.07.17-.11.27-.11h8.49a.38.38 0 1 1 0 .76H51.9l-3.42 3.42c-.07.06-.17.1-.26.1zM53.49 58.51h-5.82c-.1 0-.2-.04-.27-.11l-2.92-2.94c-.15-.15-.15-.38 0-.53s.38-.15.53 0l2.82 2.83h5.67c.21 0 .38.17.38.38s-.18.37-.39.37z" fill="#333333" opacity="1" data-original="#000000" class=""></path><path d="M38.82 69.38c-.31 0-.62 0-.94-.01l-.96-.01a.38.38 0 0 1-.38-.38V5c0-.1.04-.19.11-.27s.17-.11.27-.11c1.65 0 3.29.15 4.87.45 6.18 1.17 16.85 4.75 18.94 15.48.48 7.18-.65 19.93-4.26 32.31-1.55 5.39-5.25 10.64-10.16 14.43-2.48 1.9-4.93 2.09-7.49 2.09zm-1.52-.76h.59c2.9.02 5.38.05 7.96-1.92 4.79-3.69 8.4-8.8 9.9-14.04 3.58-12.3 4.71-24.94 4.24-32.01-2-10.25-12.35-13.7-18.34-14.84-1.41-.27-2.87-.41-4.35-.43z" fill="#333333" opacity="1" data-original="#000000" class=""></path><path fill="#f1b44c" d="M43.21 5.76v10.16h-6.29V5c1.61 0 3.22.14 4.8.44.43.08.9.18 1.37.28z" opacity="1" data-original="#d9e1f4" class=""></path><path d="M43.21 16.29h-6.29a.38.38 0 0 1-.38-.38V5c0-.21.17-.38.38-.38 1.65 0 3.29.15 4.87.45.44.08.9.18 1.38.28l.16.06c.15.05.25.19.25.35v10.16c0 .21-.17.37-.37.37zm-5.91-.75h5.54v-9.5c-.38-.08-.8-.16-1.18-.23-1.41-.27-2.87-.41-4.35-.43v10.16z" fill="#333333" opacity="1" data-original="#000000" class=""></path><path fill="#f46a6a" d="M13.92 35.29s-1.93-2.45-4.77-1.13c-2.84 1.33 1.93 17.92 7.41 14.53-.43-5.22-.23-11.46-2.64-13.4z" opacity="1" data-original="#e29c40" class=""></path><path d="M15.06 49.52c-.56 0-1.13-.16-1.68-.49-3.25-1.91-5.61-9.13-5.44-12.82.06-1.28.42-2.09 1.05-2.38 2.87-1.34 4.92.88 5.19 1.2 2.05 1.69 2.29 6 2.55 10.57.06 1.04.12 2.07.2 3.07.01.14-.06.27-.18.35-.54.33-1.11.5-1.69.5zm-4.22-15.38c-.46 0-.98.1-1.53.36-.35.16-.58.8-.62 1.74-.16 3.44 2.09 10.39 5.07 12.14.83.49 1.61.52 2.41.1-.07-.93-.13-1.89-.18-2.85-.24-4.22-.48-8.59-2.3-10.05l-.06-.06c-.06-.07-1.12-1.38-2.79-1.38z" fill="#333333" opacity="1" data-original="#000000" class=""></path><path fill="#f1b44c" d="M36.92 5v15.64s-5.38-2.53-10.34-1.36c-3.54.83-8.7 3.54-7.73 11.84.98 8.3 1.86 14.66 1.86 14.66h-4.82c-3.1-14.73-2.39-25.14-2.39-25.14 2.02-10.48 12.4-14 18.64-15.18 1.58-.32 3.18-.46 4.78-.46z" opacity="1" data-original="#734694" class=""></path><path d="M20.71 46.14h-4.82c-.18 0-.33-.12-.37-.3-3.07-14.61-2.41-25.14-2.4-25.24C15.2 9.82 25.88 6.25 32.06 5.08c1.59-.3 3.22-.45 4.86-.45.1 0 .2.04.27.11s.11.16.11.26v15.64c0 .13-.07.25-.17.32-.11.07-.24.08-.36.02-.05-.02-5.32-2.46-10.1-1.34-3.19.74-8.4 3.22-7.44 11.43.97 8.2 1.85 14.58 1.86 14.65.02.11-.02.22-.09.3a.4.4 0 0 1-.29.12zm-4.52-.75h4.09c-.21-1.56-.97-7.24-1.8-14.24-1.03-8.79 4.58-11.45 8.02-12.25 4.17-.98 8.55.55 10.05 1.16V5.38c-1.46.02-2.92.17-4.34.43-6 1.14-16.35 4.59-18.34 14.88-.01.06-.65 10.36 2.32 24.7z" fill="#333333" opacity="1" data-original="#000000" class=""></path><path fill="#000000" d="M36.92 20.64v48.35h-2.98c-2.25 0-4.46-.68-6.16-1.99-1.67-1.28-3.3-2.95-4.71-4.54a25.435 25.435 0 0 1-5.34-9.69l-1.3-4.5c-.2-.85-.38-1.68-.55-2.5h4.82s-.88-6.36-1.86-14.66c-.97-8.3 4.19-11.01 7.73-11.84 4.97-1.16 10.35 1.37 10.35 1.37z" opacity="0" data-original="#feb54c" class=""></path><path d="M36.92 69.36h-2.98c-2.39 0-4.66-.73-6.39-2.07-1.46-1.12-3.02-2.62-4.76-4.59-2.53-2.88-4.36-6.18-5.42-9.83l-1.3-4.5c-.2-.87-.39-1.71-.55-2.53-.02-.11.01-.22.08-.31s.18-.14.29-.14h4.39c-.21-1.56-.97-7.24-1.8-14.24-1.03-8.79 4.58-11.45 8.02-12.25 5.03-1.18 10.36 1.28 10.59 1.39.13.06.22.19.22.34v48.35c-.01.22-.18.38-.39.38zM16.35 46.14c.14.67.29 1.35.45 2.04l1.3 4.48c1.03 3.54 2.8 6.75 5.26 9.55 1.68 1.9 3.25 3.42 4.65 4.49 1.61 1.23 3.71 1.91 5.93 1.91h2.61V20.88c-1.04-.44-5.65-2.23-9.88-1.24-3.19.74-8.4 3.22-7.44 11.43.97 8.2 1.85 14.58 1.86 14.65.02.11-.02.22-.09.3s-.17.13-.28.13h-4.37z" fill="#333333" opacity="1" data-original="#000000" class=""></path><path fill="#f46a6a" d="M46.45 53.23a3.314 3.314 0 0 1-6.63 0c0-1.82 1.49-3.31 3.31-3.31s3.32 1.48 3.32 3.31zM43.08 27.65c0-1.83 1.49-3.31 3.31-3.31 1.83 0 3.31 1.49 3.31 3.31 0 1.83-1.49 3.31-3.31 3.31-1.82.01-3.31-1.48-3.31-3.31z" opacity="1" data-original="#41b5c6" class=""></path><path d="M43.12 56.92c-2.03 0-3.69-1.65-3.69-3.69s1.65-3.69 3.69-3.69 3.7 1.65 3.7 3.69-1.66 3.69-3.7 3.69zm0-6.63c-1.62 0-2.94 1.32-2.94 2.94a2.945 2.945 0 0 0 5.89 0c0-1.62-1.32-2.94-2.95-2.94zM46.4 31.34c-2.03 0-3.69-1.65-3.69-3.69s1.65-3.69 3.69-3.69c2.03 0 3.69 1.65 3.69 3.69s-1.66 3.69-3.69 3.69zm0-6.62c-1.62 0-2.94 1.32-2.94 2.94s1.32 2.94 2.94 2.94 2.94-1.32 2.94-2.94-1.32-2.94-2.94-2.94zM28.18 33.9c-1.78 0-3.19-.93-3.21-.95-.17-.12-.22-.35-.1-.52s.35-.22.52-.1c.11.08 2.78 1.82 5.18.01.16-.12.4-.09.53.07.12.17.09.4-.07.53-.96.72-1.95.96-2.85.96zM34.02 60.57c-3.65 0-6.09-1.29-6.22-1.36a.375.375 0 1 1 .36-.66c.03.02 3.51 1.85 8.23 1.08.21-.03.4.11.43.31s-.11.4-.31.43c-.87.14-1.71.2-2.49.2zM43.69 44.82h-6.77a.38.38 0 1 1 0-.76h6.62l3.97-3.97c.15-.15.38-.15.53 0s.15.38 0 .53l-4.08 4.08c-.07.08-.17.12-.27.12zM62.44 38h-.05l-2.68-.34a.366.366 0 0 1-.32-.42c.03-.2.21-.35.42-.32l2.68.34c.21.03.35.21.32.42a.36.36 0 0 1-.37.32zM61.82 41.43h-.05l-2.49-.32c-.21-.03-.35-.21-.32-.42s.2-.35.42-.32l2.49.32c.21.03.35.21.32.42-.03.18-.19.32-.37.32zM61.19 44.85h-.05l-2.51-.32c-.21-.03-.35-.21-.32-.42s.2-.35.42-.32l2.51.32c.21.03.35.21.32.42-.02.18-.18.32-.37.32zM39.23 9.25h-2.31a.38.38 0 1 1 0-.76h2.31a.38.38 0 1 1 0 .76zM39.49 12.92h-2.31a.38.38 0 1 1 0-.76h2.31c.21 0 .38.17.38.38s-.18.38-.38.38z" fill="#333333" opacity="1" data-original="#000000" class=""></path><circle cx="49.73" cy="38.34" r="3.31" fill="#f46a6a" opacity="1" data-original="#41b5c6" class=""></circle><path d="M49.73 42.02c-2.03 0-3.69-1.65-3.69-3.69s1.65-3.69 3.69-3.69c2.03 0 3.69 1.65 3.69 3.69s-1.66 3.69-3.69 3.69zm0-6.62c-1.62 0-2.94 1.32-2.94 2.94s1.32 2.94 2.94 2.94 2.94-1.32 2.94-2.94-1.32-2.94-2.94-2.94z" fill="#333333" opacity="1" data-original="#000000" class=""></path></g></svg>