<?xml version="1.0"?>
<svg xmlns="http://www.w3.org/2000/svg" xmlns:xlink="http://www.w3.org/1999/xlink" xmlns:svgjs="http://svgjs.com/svgjs" version="1.1" width="512" height="512" x="0" y="0" viewBox="0 0 283.959 283.959" style="enable-background:new 0 0 512 512" xml:space="preserve" class=""><g transform="matrix(0.7,0,0,0.7,42.59385223388671,42.593849945068385)">
<g xmlns="http://www.w3.org/2000/svg">
	<g>
		<g>
			<polygon style="" points="56.25,216.98 253.125,216.98 281.25,66.98 84.375,66.98    " fill="#f1b44c" data-original="#f9ba48" class=""/>
		</g>
		<g>
			<polygon style="" points="283.959,70.805 278.541,63.155 169.139,140.648 110.995,86.972 104.63,93.863      137.728,124.411 52.852,213.75 59.648,220.209 144.614,130.767 168.361,152.686 195.038,133.791 249.159,219.483      257.091,214.477 202.702,128.362    " fill="#333333" data-original="#333333" class=""/>
			
				<rect x="86.72" y="64.068" transform="matrix(0.7071 -0.7071 0.7071 0.7071 -25.562 86.3128)" style="" width="9.375" height="19.889" fill="#333333" data-original="#333333" class=""/>
			<rect x="18.75" y="90.417" style="" width="60.938" height="9.375" fill="#333333" data-original="#333333" class=""/>
			<rect x="9.375" y="137.292" style="" width="60.938" height="9.375" fill="#333333" data-original="#333333" class=""/>
			<rect y="184.167" style="" width="60.938" height="9.375" fill="#333333" data-original="#333333" class=""/>
			<rect x="89.063" y="38.855" style="" width="159.375" height="9.375" fill="#333333" data-original="#333333" class=""/>
			<rect x="56.25" y="38.855" style="" width="23.438" height="9.375" fill="#333333" data-original="#333333" class=""/>
			<rect x="70.313" y="15.417" style="" width="159.375" height="9.375" fill="#333333" data-original="#333333" class=""/>
			<rect x="37.5" y="15.417" style="" width="23.438" height="9.375" fill="#333333" data-original="#333333" class=""/>
			<rect x="46.875" y="235.73" style="" width="112.5" height="9.375" fill="#333333" data-original="#333333" class=""/>
			<rect x="14.063" y="235.73" style="" width="23.438" height="9.375" fill="#333333" data-original="#333333" class=""/>
			<rect x="32.813" y="259.167" style="" width="107.813" height="9.375" fill="#333333" data-original="#333333" class=""/>
			<rect y="259.167" style="" width="23.438" height="9.375" fill="#333333" data-original="#333333" class=""/>
		</g>
	</g>
</g>
<g xmlns="http://www.w3.org/2000/svg">
</g>
<g xmlns="http://www.w3.org/2000/svg">
</g>
<g xmlns="http://www.w3.org/2000/svg">
</g>
<g xmlns="http://www.w3.org/2000/svg">
</g>
<g xmlns="http://www.w3.org/2000/svg">
</g>
<g xmlns="http://www.w3.org/2000/svg">
</g>
<g xmlns="http://www.w3.org/2000/svg">
</g>
<g xmlns="http://www.w3.org/2000/svg">
</g>
<g xmlns="http://www.w3.org/2000/svg">
</g>
<g xmlns="http://www.w3.org/2000/svg">
</g>
<g xmlns="http://www.w3.org/2000/svg">
</g>
<g xmlns="http://www.w3.org/2000/svg">
</g>
<g xmlns="http://www.w3.org/2000/svg">
</g>
<g xmlns="http://www.w3.org/2000/svg">
</g>
<g xmlns="http://www.w3.org/2000/svg">
</g>
</g></svg>
