<svg xmlns="http://www.w3.org/2000/svg" version="1.1" xmlns:xlink="http://www.w3.org/1999/xlink" width="512" height="512" x="0" y="0" viewBox="0 0 412.17 512" style="enable-background:new 0 0 512 512" xml:space="preserve" class=""><g transform="matrix(0.8000000000000004,0,0,0.8000000000000004,41.221002197265534,51.19999984966515)"><g data-name="Layer 2"><g data-name="Structured Query Language Data File"><path fill="#333333" d="M352 512H111a60.27 60.27 0 0 1-60.2-60.2v-78.62a10 10 0 0 1 20 0v78.62A40.25 40.25 0 0 0 111 492h241a40.26 40.26 0 0 0 40.21-40.2v-90.09a10 10 0 0 1 20 0v90.09A60.28 60.28 0 0 1 352 512zM402.17 343.11a10 10 0 0 1-10-10V103.85a20.16 20.16 0 0 0-6.76-15l-71.7-63.73A20.11 20.11 0 0 0 300.35 20H121a50.3 50.3 0 0 0-50.22 50.25v121.87a10 10 0 0 1-20 0V70.25A70.32 70.32 0 0 1 121 0h179.35A40.1 40.1 0 0 1 327 10.13l71.7 63.74a40.12 40.12 0 0 1 13.47 30v229.24a10 10 0 0 1-10 10z" opacity="1" data-original="#696969" class=""></path><path fill="#333333" d="M401.66 108.56h-59.74a40.17 40.17 0 0 1-40.12-40.12V12.31a10 10 0 0 1 20 0v56.13a20.14 20.14 0 0 0 20.12 20.12h59.74a10 10 0 0 1 0 20z" opacity="1" data-original="#696969" class=""></path><g fill="#ffbb04"><path d="M115.2 332.88c-13.57 0-26.82-5.68-35.45-15.21a10 10 0 1 1 14.81-13.43c4.91 5.41 12.62 8.64 20.64 8.64 7.81 0 13.31-4.67 14.11-9.2 1.08-6-7-9.71-10.58-11-12.48-4.6-23.56-9.53-24-9.74a11 11 0 0 1-1.39-.75 25.54 25.54 0 0 1-11.41-25.29c1.54-10.72 9.38-19.46 20.47-22.8 21.95-6.61 40 8.29 40.79 8.93a10 10 0 0 1-12.82 15.35c-.31-.24-10.84-8.55-22.2-5.13-5.2 1.57-6.24 5.06-6.44 6.5a5.62 5.62 0 0 0 2 5.29c2.82 1.23 12 5.21 21.93 8.86C145.91 281.38 151 296 149 307.2c-2.66 14.88-16.87 25.68-33.8 25.68zM305.21 332.89c-8.94 0-9.48-.1-10.2-.22a10 10 0 0 1-8.31-9.86v-80.4a10 10 0 0 1 20 0v70.47c5.23 0 11.9 0 18.12-.07h.06a10 10 0 0 1 .05 20c-9.15.06-15.41.08-19.72.08zM256.77 332.56a10 10 0 0 1-7.07-2.93L224 303.89a10 10 0 0 1 14.14-14.15l25.75 25.75a10 10 0 0 1-7.08 17.07z" fill="#f1b44c" opacity="1" data-original="#ffbb04" class=""></path><path d="M216.23 332.88a50.24 50.24 0 1 1 50.23-50.23 50.29 50.29 0 0 1-50.23 50.23zm0-80.47a30.24 30.24 0 1 0 30.23 30.24 30.27 30.27 0 0 0-30.23-30.24z" fill="#f1b44c" opacity="1" data-original="#ffbb04" class=""></path></g><path fill="#333333" d="M50.37 431H35a35 35 0 1 1 0-70h45.42a10 10 0 1 1 0 20H35a15 15 0 0 0 0 30h15.4a10 10 0 1 1 0 20z" opacity="1" data-original="#696969" class=""></path><path fill="#333333" d="M10.13 403.12a10 10 0 0 1-10-10l.43-176a35 35 0 0 1 35-34.94l366.63-.07a10 10 0 0 1 10 10V371a10 10 0 0 1-10 10H45.54a10 10 0 0 1 0-20h346.63V202.05l-356.64.07a15 15 0 0 0-15 15l-.43 176a10 10 0 0 1-9.97 10z" opacity="1" data-original="#696969" class=""></path></g></g></g></svg>