<?xml version="1.0" encoding="UTF-8"?><svg xmlns="http://www.w3.org/2000/svg" xmlns:xlink="http://www.w3.org/1999/xlink" viewBox="0 0 275.83 102.54"><defs><style>.cls-1{fill:none;}.cls-2{fill:#a855f7;}.cls-3{fill:url(#linear-gradient-4);}.cls-4{fill:url(#linear-gradient-3);}.cls-5{fill:url(#linear-gradient-2);}.cls-6{fill:url(#linear-gradient);}.cls-7{clip-path:url(#clippath-1);}.cls-8{fill:#ffba10;}.cls-9{fill:#fff;}.cls-10{clip-path:url(#clippath);}</style><clipPath id="clippath"><rect class="cls-1" x="30.58" y="31.27" width="214.67" height="40"/></clipPath><linearGradient id="linear-gradient" x1="149.48" y1="297.97" x2="186.41" y2="294.36" gradientTransform="translate(-114.7 348.26) scale(1 -1)" gradientUnits="userSpaceOnUse"><stop offset="0" stop-color="#fad720"/><stop offset="1" stop-color="#f96"/></linearGradient><linearGradient id="linear-gradient-2" x1="153.52" y1="281.61" x2="189.42" y2="298.5" gradientTransform="translate(-114.7 348.26) scale(1 -1)" gradientUnits="userSpaceOnUse"><stop offset="0" stop-color="#31e4fa"/><stop offset=".5" stop-color="#4877ff"/><stop offset="1" stop-color="#d775ff"/></linearGradient><linearGradient id="linear-gradient-3" x1="154.48" y1="281.82" x2="170.2" y2="311.4" gradientTransform="translate(-114.7 348.26) scale(1 -1)" gradientUnits="userSpaceOnUse"><stop offset="0" stop-color="#7d69ed"/><stop offset=".51" stop-color="#f983db"/><stop offset="1" stop-color="#ffc1ab"/></linearGradient><linearGradient id="linear-gradient-4" x1="183.61" y1="282.32" x2="163.55" y2="311.38" gradientTransform="translate(-114.7 348.26) scale(1 -1)" gradientUnits="userSpaceOnUse"><stop offset="0" stop-color="#ff7854"/><stop offset="1" stop-color="#fd267d"/></linearGradient><clipPath id="clippath-1"><rect class="cls-1" x="30.58" y="31.27" width="214.67" height="40"/></clipPath></defs><g id="Layer_1"><g class="cls-10"><path class="cls-8" d="M94.4,37.04l-10.04,26.76h5.52l2.28-6.39h9.57l2.32,6.39h5.48l-10.04-26.76h-5.09ZM100.03,52.74h-6.21l3.08-8.59,3.13,8.59Z"/><path class="cls-8" d="M123.3,57.2c-.39.65-.99,1.21-1.71,1.6s-1.55.6-2.36.6c-1.28,0-2.52-.52-3.44-1.43-.92-.91-1.52-2.19-1.52-3.75s.6-2.79,1.51-3.65c.92-.88,2.16-1.37,3.45-1.37.84,0,1.68.21,2.41.6.73.39,1.33.96,1.72,1.65l.29.53,4.32-2.07-.31-.6c-.81-1.59-2.04-2.83-3.49-3.65-1.45-.83-3.12-1.27-4.85-1.27-2.6,0-5.09.93-6.96,2.63-1.87,1.69-3.07,4.19-3.07,7.19s1.15,5.44,2.97,7.19c1.83,1.75,4.33,2.73,7.01,2.73,1.73,0,3.43-.43,4.88-1.25,1.47-.83,2.69-2.07,3.53-3.67l.32-.63-4.44-1.91-.28.52Z"/><path class="cls-8" d="M136.55,38.63h-5.03v6.15h-3.13v4.15h3.13v14.88h5.03v-14.88h3.68v-4.15h-3.68v-6.15Z"/><path class="cls-8" d="M143.03,45.43v18.37h5.03v-19.03h-5.03v.65Z"/><path class="cls-8" d="M147.21,37.3c-.47-.29-1.04-.43-1.65-.43-.43,0-.81.05-1.17.19-.53.19-.99.53-1.28,1-.29.47-.43,1.01-.43,1.61,0,.4.05.79.19,1.13.19.52.55.97,1.01,1.25.48.28,1.04.41,1.67.41.41,0,.8-.05,1.15-.17.53-.17.99-.52,1.28-.99.29-.47.44-1.03.44-1.63,0-.4-.07-.77-.19-1.12-.19-.53-.55-.99-1.01-1.27Z"/><path class="cls-8" d="M160.43,44.42c-2.68,0-5.19.96-7.03,2.68-1.84,1.72-3,4.21-3,7.17s1.16,5.45,3,7.19c1.84,1.73,4.35,2.71,7.03,2.71s5.17-.99,7-2.72c1.84-1.73,3-4.23,2.99-7.17,0-2.95-1.16-5.43-2.99-7.16-1.84-1.72-4.33-2.69-7-2.69ZM160.39,49.2c1.41,0,2.69.52,3.63,1.41.93.89,1.51,2.13,1.51,3.65s-.59,2.79-1.52,3.69c-.93.91-2.21,1.44-3.63,1.44s-2.69-.53-3.63-1.44c-.93-.91-1.51-2.17-1.52-3.69,0-1.51.59-2.76,1.51-3.65.96-.88,2.24-1.41,3.65-1.41Z"/><path class="cls-8" d="M183.35,44.42c-1.28,0-2.65.27-3.84.89-.51.27-.99.6-1.4,1.01v-1.56h-5.07v19.04h5.07v-10.24c0-.83.16-1.49.41-2.03.37-.8.97-1.33,1.65-1.69.68-.36,1.47-.51,2.13-.51,1,0,1.85.33,2.48.96.63.64,1.04,1.61,1.04,3.05v10.45h5v-10.55c0-2.67-.69-4.88-2-6.43-1.33-1.57-3.25-2.41-5.48-2.41Z"/><path class="cls-8" d="M208.46,44.78v2.04c-.43-.47-.92-.89-1.47-1.24-1.16-.73-2.57-1.16-4.2-1.16-2.56,0-4.96,1.03-6.71,2.79-1.75,1.75-2.87,4.24-2.85,7.11,0,2.91,1.12,5.39,2.89,7.12,1.76,1.73,4.16,2.73,6.68,2.73,1.64,0,3.05-.41,4.2-1.15.55-.35,1.03-.76,1.45-1.23v2.03h5.03v-19.04h-5.03ZM208.46,54.34c0,1.45-.57,2.71-1.49,3.61s-2.19,1.45-3.57,1.45c-2.8,0-5.11-2.24-5.11-5.11,0-1.45.57-2.72,1.48-3.64.92-.91,2.17-1.47,3.59-1.47s2.65.55,3.59,1.44c.92.89,1.51,2.15,1.52,3.56v.15Z"/><path class="cls-8" d="M227.88,44.42c-1.59,0-2.97.39-4.13,1.09-.56.35-1.05.76-1.51,1.23v-10.56h-5.07v27.64h5.07v-2.03c.45.48.95.91,1.52,1.25,1.16.72,2.56,1.12,4.15,1.12,2.55,0,4.93-1.01,6.68-2.77,1.75-1.75,2.85-4.23,2.85-7.12s-1.11-5.39-2.87-7.12c-1.73-1.73-4.13-2.73-6.69-2.73ZM232.39,54.27c0,2.88-2.27,5.13-5.07,5.13-1.45,0-2.71-.59-3.61-1.51-.91-.93-1.45-2.2-1.45-3.59s.52-2.63,1.41-3.55c.89-.92,2.16-1.52,3.68-1.52,1.37,0,2.63.53,3.55,1.43.92.89,1.49,2.15,1.49,3.6Z"/><path class="cls-8" d="M240.11,36.18v27.63h5.07v-27.63h-5.07Z"/><path class="cls-6" d="M69.29,49.39h-31.84c-1.5,0-2.71,1.21-2.71,2.71s1.21,2.71,2.71,2.71h31.84c1.5,0,2.71-1.21,2.71-2.71s-1.21-2.71-2.71-2.71Z"/><path class="cls-5" d="M71.73,50.92c-.65-1.35-2.27-1.91-3.62-1.25l-27.02,13.13c-1.34.65-1.91,2.27-1.25,3.62.47.97,1.43,1.53,2.44,1.53.4,0,.8-.09,1.18-.27l27.02-13.12c1.35-.65,1.91-2.27,1.25-3.62Z"/><path class="cls-4" d="M54.41,34.8c-1.39-.55-2.97.12-3.52,1.51l-11.13,27.91c-.55,1.39.12,2.97,1.51,3.52.33.13.67.19,1,.19,1.08,0,2.09-.65,2.52-1.71l11.13-27.91c.55-1.39-.12-2.97-1.51-3.52Z"/><path class="cls-3" d="M66.69,64.25l-10.76-27.91c-.54-1.4-2.11-2.09-3.5-1.55-1.4.54-2.09,2.11-1.55,3.5l10.76,27.91c.41,1.08,1.44,1.74,2.53,1.74.32,0,.65-.06.97-.18,1.4-.54,2.09-2.11,1.55-3.5h0Z"/><path class="cls-9" d="M68.14,47.87c-.24.03-.51.03-.79,0h.79Z"/></g></g><g id="Layer_1_copy"><g class="cls-7"><path class="cls-2" d="M94.4,37.04l-10.04,26.76h5.52l2.28-6.39h9.57l2.32,6.39h5.48l-10.04-26.76h-5.09ZM100.03,52.74h-6.21l3.08-8.59,3.13,8.59Z"/><path class="cls-2" d="M123.3,57.2c-.39.65-.99,1.21-1.71,1.6s-1.55.6-2.36.6c-1.28,0-2.52-.52-3.44-1.43-.92-.91-1.52-2.19-1.52-3.75s.6-2.79,1.51-3.65c.92-.88,2.16-1.37,3.45-1.37.84,0,1.68.21,2.41.6.73.39,1.33.96,1.72,1.65l.29.53,4.32-2.07-.31-.6c-.81-1.59-2.04-2.83-3.49-3.65-1.45-.83-3.12-1.27-4.85-1.27-2.6,0-5.09.93-6.96,2.63-1.87,1.69-3.07,4.19-3.07,7.19s1.15,5.44,2.97,7.19c1.83,1.75,4.33,2.73,7.01,2.73,1.73,0,3.43-.43,4.88-1.25,1.47-.83,2.69-2.07,3.53-3.67l.32-.63-4.44-1.91-.28.52Z"/><path class="cls-2" d="M136.55,38.63h-5.03v6.15h-3.13v4.15h3.13v14.88h5.03v-14.88h3.68v-4.15h-3.68v-6.15Z"/><path class="cls-2" d="M143.03,45.43v18.37h5.03v-19.03h-5.03v.65Z"/><path class="cls-2" d="M147.21,37.3c-.47-.29-1.04-.43-1.65-.43-.43,0-.81.05-1.17.19-.53.19-.99.53-1.28,1-.29.47-.43,1.01-.43,1.61,0,.4.05.79.19,1.13.19.52.55.97,1.01,1.25.48.28,1.04.41,1.67.41.41,0,.8-.05,1.15-.17.53-.17.99-.52,1.28-.99.29-.47.44-1.03.44-1.63,0-.4-.07-.77-.19-1.12-.19-.53-.55-.99-1.01-1.27Z"/><path class="cls-2" d="M160.43,44.42c-2.68,0-5.19.96-7.03,2.68-1.84,1.72-3,4.21-3,7.17s1.16,5.45,3,7.19c1.84,1.73,4.35,2.71,7.03,2.71s5.17-.99,7-2.72c1.84-1.73,3-4.23,2.99-7.17,0-2.95-1.16-5.43-2.99-7.16-1.84-1.72-4.33-2.69-7-2.69ZM160.39,49.2c1.41,0,2.69.52,3.63,1.41.93.89,1.51,2.13,1.51,3.65s-.59,2.79-1.52,3.69c-.93.91-2.21,1.44-3.63,1.44s-2.69-.53-3.63-1.44c-.93-.91-1.51-2.17-1.52-3.69,0-1.51.59-2.76,1.51-3.65.96-.88,2.24-1.41,3.65-1.41Z"/><path class="cls-2" d="M183.35,44.42c-1.28,0-2.65.27-3.84.89-.51.27-.99.6-1.4,1.01v-1.56h-5.07v19.04h5.07v-10.24c0-.83.16-1.49.41-2.03.37-.8.97-1.33,1.65-1.69.68-.36,1.47-.51,2.13-.51,1,0,1.85.33,2.48.96.63.64,1.04,1.61,1.04,3.05v10.45h5v-10.55c0-2.67-.69-4.88-2-6.43-1.33-1.57-3.25-2.41-5.48-2.41Z"/><path class="cls-2" d="M208.46,44.78v2.04c-.43-.47-.92-.89-1.47-1.24-1.16-.73-2.57-1.16-4.2-1.16-2.56,0-4.96,1.03-6.71,2.79-1.75,1.75-2.87,4.24-2.85,7.11,0,2.91,1.12,5.39,2.89,7.12,1.76,1.73,4.16,2.73,6.68,2.73,1.64,0,3.05-.41,4.2-1.15.55-.35,1.03-.76,1.45-1.23v2.03h5.03v-19.04h-5.03ZM208.46,54.34c0,1.45-.57,2.71-1.49,3.61s-2.19,1.45-3.57,1.45c-2.8,0-5.11-2.24-5.11-5.11,0-1.45.57-2.72,1.48-3.64.92-.91,2.17-1.47,3.59-1.47s2.65.55,3.59,1.44c.92.89,1.51,2.15,1.52,3.56v.15Z"/><path class="cls-2" d="M227.88,44.42c-1.59,0-2.97.39-4.13,1.09-.56.35-1.05.76-1.51,1.23v-10.56h-5.07v27.64h5.07v-2.03c.45.48.95.91,1.52,1.25,1.16.72,2.56,1.12,4.15,1.12,2.55,0,4.93-1.01,6.68-2.77,1.75-1.75,2.85-4.23,2.85-7.12s-1.11-5.39-2.87-7.12c-1.73-1.73-4.13-2.73-6.69-2.73ZM232.39,54.27c0,2.88-2.27,5.13-5.07,5.13-1.45,0-2.71-.59-3.61-1.51-.91-.93-1.45-2.2-1.45-3.59s.52-2.63,1.41-3.55c.89-.92,2.16-1.52,3.68-1.52,1.37,0,2.63.53,3.55,1.43.92.89,1.49,2.15,1.49,3.6Z"/><path class="cls-2" d="M240.11,36.18v27.63h5.07v-27.63h-5.07Z"/><path class="cls-6" d="M69.29,49.39h-31.84c-1.5,0-2.71,1.21-2.71,2.71s1.21,2.71,2.71,2.71h31.84c1.5,0,2.71-1.21,2.71-2.71s-1.21-2.71-2.71-2.71Z"/><path class="cls-5" d="M71.73,50.92c-.65-1.35-2.27-1.91-3.62-1.25l-27.02,13.13c-1.34.65-1.91,2.27-1.25,3.62.47.97,1.43,1.53,2.44,1.53.4,0,.8-.09,1.18-.27l27.02-13.12c1.35-.65,1.91-2.27,1.25-3.62Z"/><path class="cls-4" d="M54.41,34.8c-1.39-.55-2.97.12-3.52,1.51l-11.13,27.91c-.55,1.39.12,2.97,1.51,3.52.33.13.67.19,1,.19,1.08,0,2.09-.65,2.52-1.71l11.13-27.91c.55-1.39-.12-2.97-1.51-3.52Z"/><path class="cls-3" d="M66.69,64.25l-10.76-27.91c-.54-1.4-2.11-2.09-3.5-1.55-1.4.54-2.09,2.11-1.55,3.5l10.76,27.91c.41,1.08,1.44,1.74,2.53,1.74.32,0,.65-.06.97-.18,1.4-.54,2.09-2.11,1.55-3.5h0Z"/><path class="cls-9" d="M68.14,47.87c-.24.03-.51.03-.79,0h.79Z"/></g></g></svg>