<svg xmlns="http://www.w3.org/2000/svg" version="1.1" xmlns:xlink="http://www.w3.org/1999/xlink" width="512" height="512" x="0" y="0" viewBox="0 0 492 492" style="enable-background:new 0 0 512 512" xml:space="preserve" class=""><g><g fill-rule="evenodd" clip-rule="evenodd"><g fill="#66bb6a"><path d="M272.637 145.264a5.76 5.76 0 0 1-5.76-5.76v-17.279c0-11.368-9.249-20.617-20.617-20.617s-20.617 9.249-20.617 20.617v17.279a5.76 5.76 0 0 1-11.52 0v-17.279c0-17.72 14.417-32.137 32.137-32.137 17.721 0 32.137 14.416 32.137 32.137v17.279a5.76 5.76 0 0 1-5.76 5.76zM246.26 403.392c-24.031 0-43.582-19.551-43.582-43.582a5.76 5.76 0 0 1 11.52 0c0 17.679 14.383 32.062 32.062 32.062s32.062-14.383 32.062-32.062a5.76 5.76 0 0 1 11.52 0c0 24.031-19.55 43.582-43.582 43.582zM73.779 292.05a5.764 5.764 0 0 1-5.544-4.207 170.304 170.304 0 0 1-6.294-45.943c0-15.274 2.037-30.44 6.054-45.076 3.896-14.199 9.659-27.916 17.125-40.769a5.76 5.76 0 1 1 9.961 5.787c-6.968 11.995-12.343 24.79-15.977 38.031a158.786 158.786 0 0 0-5.643 42.027c0 14.528 1.974 28.94 5.867 42.835a5.761 5.761 0 0 1-5.549 7.315zm344.963 0a5.76 5.76 0 0 1-5.55-7.315 158.767 158.767 0 0 0 5.867-42.835c0-14.244-1.898-28.384-5.642-42.027-3.634-13.241-9.01-26.036-15.977-38.031a5.76 5.76 0 0 1 9.961-5.787c7.467 12.853 13.228 26.569 17.125 40.768a170.372 170.372 0 0 1 6.053 45.076c0 15.579-2.117 31.036-6.294 45.943a5.761 5.761 0 0 1-5.543 4.208zM374.532 272.939a5.76 5.76 0 0 1-5.658-6.869 126.053 126.053 0 0 0 2.336-24.17c0-21.386-5.495-42.487-15.889-61.023a5.76 5.76 0 0 1 10.047-5.635c11.358 20.253 17.361 43.303 17.361 66.658 0 8.871-.859 17.748-2.551 26.385a5.76 5.76 0 0 1-5.646 4.654zm-256.544 0a5.762 5.762 0 0 1-5.647-4.654 137.56 137.56 0 0 1-2.551-26.385c0-23.355 6.004-46.404 17.362-66.658a5.76 5.76 0 0 1 10.047 5.635c-10.395 18.536-15.889 39.637-15.889 61.023 0 8.129.786 16.261 2.335 24.171a5.76 5.76 0 0 1-5.657 6.868z" fill="#f1b44c" opacity="1" data-original="#66bb6a" class=""></path></g><path fill="#333333" d="M331.585 315.698a5.76 5.76 0 0 1-5.76-5.76v-89.312c0-43.872-35.693-79.566-79.565-79.566s-79.565 35.693-79.565 79.566v89.313a5.76 5.76 0 0 1-11.52 0v-89.313c0-12.246 2.42-24.15 7.191-35.382 4.603-10.835 11.184-20.576 19.561-28.952 8.376-8.376 18.117-14.957 28.951-19.56 11.232-4.772 23.136-7.192 35.382-7.192s24.15 2.42 35.382 7.191c10.835 4.603 20.575 11.184 28.952 19.56 8.376 8.376 14.957 18.117 19.56 28.952 4.771 11.232 7.191 23.136 7.191 35.382v89.313a5.76 5.76 0 0 1-5.76 5.76z" opacity="1" data-original="#212121" class=""></path><path fill="#333333" d="M331.585 365.57h-170.65c-16.926 0-30.696-13.77-30.696-30.696s13.77-30.696 30.696-30.696h170.651c16.925 0 30.696 13.77 30.696 30.696-.001 16.925-13.771 30.696-30.697 30.696zm-170.65-49.872c-10.574 0-19.176 8.603-19.176 19.176 0 10.574 8.603 19.176 19.176 19.176h170.651c10.574 0 19.176-8.602 19.176-19.176s-8.603-19.176-19.176-19.176z" opacity="1" data-original="#212121" class=""></path></g></g></svg>