<svg xmlns="http://www.w3.org/2000/svg" version="1.1" xmlns:xlink="http://www.w3.org/1999/xlink" width="512" height="512" x="0" y="0" viewBox="0 0 36 36" style="enable-background:new 0 0 512 512" xml:space="preserve" class=""><g transform="matrix(0.8500000000000005,0,0,0.8500000000000005,2.7029992461204433,2.700000035762775)"><path fill="#333333" d="M22.27 24.4h-8.54a2.14 2.14 0 0 1-2.13-2.13v-8.54a2.14 2.14 0 0 1 2.13-2.13h8.54a2.14 2.14 0 0 1 2.13 2.13v8.54a2.14 2.14 0 0 1-2.13 2.13zm0-10.67h-8.54v8.54h8.54z" opacity="1" data-original="#43d685" class=""></path><path d="M32.93 21.91h-3.2v-7.82h3.2a1.07 1.07 0 1 0 0-2.13h-3.2V9.47a3.18 3.18 0 0 0-3.2-3.2H24v-3.2a1.07 1.07 0 1 0-2.13 0v3.2h-7.78v-3.2a1.07 1.07 0 1 0-2.13 0v3.2H9.47a3.18 3.18 0 0 0-3.2 3.2V12h-3.2a1.07 1.07 0 1 0 0 2.13h3.2v7.82h-3.2a1.07 1.07 0 1 0 0 2.13h3.2v2.49a3.21 3.21 0 0 0 .93 2.23 3.25 3.25 0 0 0 2.27.93H12v3.2a1.07 1.07 0 1 0 2.13 0v-3.2h7.82v3.2a1.07 1.07 0 1 0 2.13 0v-3.2h2.49a3.18 3.18 0 0 0 3.2-3.2V24h3.2a1.07 1.07 0 1 0 0-2.13zm-5.33 4.62a1.06 1.06 0 0 1-1.07 1.07H9.47a1.06 1.06 0 0 1-1.07-1.07V9.47A1.06 1.06 0 0 1 9.47 8.4h17.06a1.06 1.06 0 0 1 1.07 1.07z" fill="#f1b44c" opacity="1" data-original="#000000" class=""></path></g></svg>