<svg xmlns="http://www.w3.org/2000/svg" version="1.1" xmlns:xlink="http://www.w3.org/1999/xlink" width="512" height="512" x="0" y="0" viewBox="0 0 173.397 173.397" style="enable-background:new 0 0 512 512" xml:space="preserve" fill-rule="evenodd" class=""><g transform="matrix(0.9100000000000003,0,0,0.9100000000000003,7.802847976684546,7.80290616989133)"><path fill="#f1b44c" d="m91.68 146.499.02.02-.02-.02zm-1.39-7.188-2.898 2.897a1.738 1.738 0 0 1 .081.084l.942.941c1.091 1.092 2.361 2.359 3.265 3.266a1.673 1.673 0 0 0-2.363 0l-1.18 1.18-6.73 6.733c-5.933 5.932-12.988 5.984-17.866 4.985-6.396-1.312-13.01-5.128-18.625-10.743-5.616-5.615-9.431-12.23-10.744-18.629-1.002-4.873-.95-11.93 4.986-17.862l12.58-12.58-2.364-2.364-12.58 12.58c-5.529 5.528-7.568 12.755-5.898 20.898 1.445 7.033 5.585 14.246 11.656 20.32 6.071 6.072 13.289 10.211 20.317 11.653 1.848.38 3.648.567 5.393.567 5.942 0 11.234-2.19 15.51-6.461l6.734-6.74 1.174-1.173a1.669 1.669 0 0 0 .02-2.343l2.901-2.902a16.34 16.34 0 0 1-2.35-1.958 16.478 16.478 0 0 1-1.96-2.349z" opacity="1" data-original="#83dbf2" class=""></path><g fill="#1865c1"><path d="M96.832 120.658c-2.447 2.447-9.834 11.022-2.217 18.639 2.643 2.642 5.692 3.721 9.068 3.21 3.194-.484 6.503-2.36 9.57-5.428l17.132-17.131-16.42-16.422zm5.251 25.312c-3.62 0-6.988-1.465-9.832-4.31-3.44-3.439-4.867-7.616-4.136-12.086.63-3.85 2.827-7.753 6.353-11.28h.002l18.315-18.312a1.67 1.67 0 0 1 2.359 0l18.785 18.782c.652.655.651 1.713 0 2.364l-18.315 18.315c-3.572 3.572-7.527 5.776-11.43 6.367-.708.108-1.41.16-2.1.16z" fill="#333333" opacity="1" data-original="#1865c1" class=""></path><path d="M130.251 119.119a1.668 1.668 0 0 1-1.181-2.851l8.1-8.105c.085-.08.102-.177.102-.24a.329.329 0 0 0-.101-.243l-10.938-10.942a.352.352 0 0 0-.485 0l-8.103 8.104a1.67 1.67 0 0 1-2.365 0 1.676 1.676 0 0 1 0-2.363l8.105-8.105a3.694 3.694 0 0 1 5.21 0l10.94 10.942a3.687 3.687 0 0 1 0 5.211l-8.104 8.105a1.653 1.653 0 0 1-1.18.487zM91.66 150.558c-.644 0-1.025-.38-1.564-.919l-6.248-6.249c-.122-.118-1.146-1.218.163-2.527l5.46-5.46a1.673 1.673 0 0 1 2.362 0 1.674 1.674 0 0 1 0 2.365l-.48.48-3.962 3.962 1.024 1.023c1.1 1.1 2.38 2.378 3.286 3.287l4.446-4.45a1.673 1.673 0 0 1 2.363 0 1.668 1.668 0 0 1 0 2.365l-5.624 5.629c-.252.247-.573.41-.917.466-.11.017-.212.028-.31.028z" fill="#333333" opacity="1" data-original="#1865c1" class=""></path><path d="M68.157 157.166c-1.626 0-3.325-.216-5.083-.647-5.541-1.365-11.314-4.836-16.25-9.772-4.94-4.94-8.412-10.712-9.773-16.255-1.604-6.513-.216-12.195 4.01-16.424l13.763-13.762a1.674 1.674 0 0 1 2.363 0 1.667 1.667 0 0 1 0 2.364L43.426 116.43c-7.623 7.624-2.357 19.833 5.758 27.952 4.45 4.445 9.803 7.686 14.687 8.891 3.711.912 9.024 1.11 13.264-3.133l7.913-7.913a1.674 1.674 0 0 1 2.364 0c.652.654.65 1.713 0 2.364l-7.913 7.913c-3.087 3.087-6.949 4.661-11.342 4.661zm.105 6.072c-1.745 0-3.545-.188-5.393-.568-7.028-1.441-14.246-5.58-20.317-11.652-6.071-6.075-10.211-13.288-11.656-20.32-1.67-8.143.37-15.37 5.898-20.899l13.761-13.761a1.674 1.674 0 0 1 2.364 0c.652.65.651 1.71 0 2.364l-13.76 13.761c-5.937 5.932-5.99 12.989-4.987 17.863 1.313 6.398 5.128 13.013 10.744 18.628 5.616 5.616 12.23 9.431 18.625 10.744 4.878.999 11.934.947 17.866-4.986l7.91-7.913a1.673 1.673 0 0 1 2.363 0c.654.655.654 1.71 0 2.364l-7.909 7.913c-4.275 4.272-9.567 6.462-15.509 6.462zM95.142 28.74 62.229 61.654c-8.088 8.087-8.088 21.253 0 29.34 4.045 4.046 9.36 6.068 14.673 6.068a20.653 20.653 0 0 0 14.67-6.068l32.913-32.908zm-18.24 71.646c-6.454 0-12.502-2.496-17.034-7.029-9.396-9.392-9.396-24.675 0-34.068L93.96 25.193a1.667 1.667 0 0 1 1.18-.487c.446 0 .87.174 1.183.487l31.708 31.708c.652.654.65 1.713 0 2.364L93.937 93.357c-4.533 4.533-10.584 7.029-17.035 7.029z" fill="#333333" opacity="1" data-original="#1865c1" class=""></path><path d="m95.142 40.462-27.05 27.053c-2.336 2.336-3.625 5.463-3.625 8.808 0 3.346 1.288 6.472 3.624 8.811 4.86 4.857 12.762 4.857 17.618 0l27.054-27.05zm-18.24 51.656a15.771 15.771 0 0 1-11.175-4.62c-2.965-2.97-4.6-6.938-4.602-11.175 0-4.237 1.636-8.205 4.602-11.171L93.96 36.918a1.674 1.674 0 0 1 2.363 0l19.984 19.983c.65.654.65 1.713-.001 2.364L88.073 87.498a15.758 15.758 0 0 1-11.17 4.62zM124.777 57.68a1.669 1.669 0 0 1-1.18-2.851l3.917-3.92a2.405 2.405 0 0 0-.001-3.397l-21.8-21.8a2.41 2.41 0 0 0-3.401 0l-3.916 3.916a1.669 1.669 0 0 1-2.364 0 1.676 1.676 0 0 1 0-2.363l3.92-3.917a5.747 5.747 0 0 1 8.125 0l21.8 21.8a5.702 5.702 0 0 1 1.678 4.063 5.698 5.698 0 0 1-1.678 4.062l-3.919 3.92a1.656 1.656 0 0 1-1.181.488z" fill="#333333" opacity="1" data-original="#1865c1" class=""></path><path d="M128.109 47.414c-.428 0-.854-.163-1.181-.49a1.67 1.67 0 0 1 0-2.364l12.105-12.102-18.267-18.266-12.103 12.105c-.652.65-1.71.65-2.362 0a1.669 1.669 0 0 1 0-2.364l13.286-13.285a1.674 1.674 0 0 1 2.363 0l20.626 20.627a1.668 1.668 0 0 1 0 2.364l-13.284 13.284a1.665 1.665 0 0 1-1.183.491z" fill="#333333" opacity="1" data-original="#1865c1" class=""></path><path d="m117.265 24.605 2.499 2.503 2.998-2.998-2.503-2.5zm2.499 6.538c-.428 0-.857-.164-1.18-.491l-4.867-4.864a1.675 1.675 0 0 1 0-2.363l5.36-5.358a1.668 1.668 0 0 1 2.364 0l4.865 4.863a1.67 1.67 0 0 1-.001 2.364l-5.36 5.358a1.66 1.66 0 0 1-1.181.49zM126.118 33.461l2.499 2.5 2.998-2.994-2.5-2.503zm2.499 6.535c-.442 0-.867-.178-1.18-.491l-4.863-4.864a1.668 1.668 0 0 1 0-2.363l5.358-5.358a1.673 1.673 0 0 1 2.363 0l4.864 4.863a1.668 1.668 0 0 1-.001 2.364l-5.357 5.361c-.313.31-.739.488-1.184.487zM58.02 105.173c-.436 0-.86-.17-1.185-.49l-8.291-8.293a1.674 1.674 0 0 1 0-2.367l7.732-7.73a1.662 1.662 0 0 1 2.36 0c.655.652.654 1.71 0 2.365l-6.549 6.548 5.933 5.932 6.548-6.548a1.667 1.667 0 0 1 2.363 0c.656.65.655 1.71 0 2.36l-7.731 7.732a1.598 1.598 0 0 1-.432.314c-.24.118-.495.177-.748.177z" fill="#333333" opacity="1" data-original="#1865c1" class=""></path></g><path fill="#000000" d="m95.142 40.462-27.05 27.053c-2.336 2.336-3.625 5.463-3.625 8.808 0 3.346 1.288 6.472 3.624 8.811 4.86 4.857 12.762 4.857 17.618 0l27.054-27.05z" opacity="0" data-original="#e7e7e8" class=""></path><path fill="#f1b44c" d="M95.142 28.74 62.229 61.654c-6.73 6.728-7.86 16.973-3.392 24.883.05.073.094.15.131.228a20.702 20.702 0 0 0 3.26 4.23 20.723 20.723 0 0 0 4.247 3.27c.07.033.137.072.201.115a20.767 20.767 0 0 0 10.226 2.682 20.653 20.653 0 0 0 14.67-6.068l32.913-32.908zM65.727 65.153 93.96 36.918a1.674 1.674 0 0 1 2.363 0l19.984 19.983c.65.654.65 1.713-.001 2.364L88.073 87.498a15.758 15.758 0 0 1-11.17 4.62 15.771 15.771 0 0 1-11.176-4.62c-2.965-2.97-4.6-6.938-4.602-11.175 0-4.237 1.636-8.205 4.602-11.171zM99.577 28.447l25.201 25.2 2.736-2.737a2.405 2.405 0 0 0-.001-3.398l-21.8-21.8a2.41 2.41 0 0 0-3.401 0z" opacity="1" data-original="#83dbf2" class=""></path><g fill="#e7e7e8"><path d="m129.115 30.464-2.997 2.997 2.499 2.5 2.998-2.994zM120.259 21.61l-2.994 2.995 2.499 2.503 2.998-2.998z" fill="#000000" opacity="0" data-original="#e7e7e8" class=""></path><path d="M126.306 22.93a1.67 1.67 0 0 1-.001 2.364l-5.36 5.358a1.66 1.66 0 0 1-1.181.49c-.428 0-.857-.163-1.18-.49l-4.867-4.864a1.675 1.675 0 0 1 0-2.363l5.36-5.358a1.668 1.668 0 0 1 2.364 0zm-5.54-8.738-10.922 10.924 18.265 18.263 10.924-10.92zm7.166 12.728a1.673 1.673 0 0 1 2.363 0l4.864 4.863a1.668 1.668 0 0 1-.001 2.364l-5.357 5.361a1.671 1.671 0 0 1-2.364-.003l-4.863-4.864a1.668 1.668 0 0 1 0-2.363z" fill="#000000" opacity="0" data-original="#e7e7e8" class=""></path></g><path fill="#f1b44c" d="m57.16 90.133-5.073 5.072.832.833 4.268 4.268.833.832 5.072-5.073a24.182 24.182 0 0 1-3.224-2.708 24.148 24.148 0 0 1-2.708-3.224z" opacity="1" data-original="#83dbf2" class=""></path><path fill="#000000" d="m51.737 99.583-12.579 12.58c-5.936 5.932-5.988 12.989-4.986 17.863 1.313 6.398 5.128 13.013 10.744 18.628s12.23 9.431 18.625 10.743c4.878 1 11.934.947 17.866-4.985l6.73-6.732-1.907-1.907-6.73 6.731c-3.088 3.088-6.95 4.662-11.343 4.662-1.626 0-3.325-.216-5.083-.648-5.541-1.365-11.314-4.835-16.25-9.772-4.94-4.94-8.412-10.712-9.773-16.254-1.604-6.513-.216-12.195 4.01-16.425l12.581-12.58z" opacity="0" data-original="#e7e7e8" class=""></path><path fill="#f1b44c" d="m113.964 103.526-17.132 17.132c-2.071 2.07-7.68 8.53-4.739 15.085.052.088.095.18.129.275.533 1.099 1.312 2.198 2.392 3.279 1.045 1.044 2.154 1.844 3.32 2.399.065.025.129.054.19.087 1.732.779 3.59 1.022 5.559.723 3.194-.484 6.503-2.36 9.57-5.427l17.132-17.132-1.295-1.295a1.352 1.352 0 0 1-.034-.034l-13.741-13.74a1.962 1.962 0 0 1-.036-.036l-.03-.031z" opacity="1" data-original="#83dbf2" class=""></path><path fill="#000000" d="m125.748 96.737-6.924 6.925 11.427 11.424 6.92-6.923c.084-.08.1-.177.1-.24a.329.329 0 0 0-.1-.244l-10.939-10.942a.352.352 0 0 0-.484 0z" opacity="0" data-original="#e7e7e8" class=""></path></g></svg>