<svg xmlns="http://www.w3.org/2000/svg" version="1.1" xmlns:xlink="http://www.w3.org/1999/xlink" width="512" height="512" x="0" y="0" viewBox="0 0 1.707 1.707" style="enable-background:new 0 0 512 512" xml:space="preserve" fill-rule="evenodd" class=""><g transform="matrix(0.8099999999999999,0,0,0.8099999999999999,0.16205809892038836,0.16225981255294986)"><path fill="#333333" d="M.947 1.707H.76a.022.022 0 0 1-.022-.019l-.03-.193a.655.655 0 0 1-.049-.013l-.123.152a.022.022 0 0 1-.028.005l-.162-.094a.022.022 0 0 1-.01-.026l.07-.183A.666.666 0 0 1 .371 1.3l-.183.07a.022.022 0 0 1-.027-.01L.068 1.2a.022.022 0 0 1 .005-.028l.152-.123A.655.655 0 0 1 .212.999L.018.97A.022.022 0 0 1 0 .946V.76C0 .749.008.74.018.738l.194-.03A.658.658 0 0 1 .225.658L.073.536A.022.022 0 0 1 .068.508L.16.346a.022.022 0 0 1 .027-.01l.183.07A.666.666 0 0 1 .406.371L.336.188A.022.022 0 0 1 .346.16L.508.068a.022.022 0 0 1 .028.005l.123.152A.66.66 0 0 1 .707.212L.738.018A.022.022 0 0 1 .76 0h.187c.01 0 .02.008.021.018L1 .212a.66.66 0 0 1 .049.013L1.17.073A.022.022 0 0 1 1.2.068L1.36.16c.01.006.013.017.01.027L1.3.37a.666.666 0 0 1 .035.035l.183-.07c.01-.004.021 0 .026.01l.094.162c.005.01.003.02-.005.028l-.152.123c.005.016.01.032.013.048l.193.031c.01.002.019.01.019.022v.187c0 .01-.008.02-.019.021L1.495 1a.659.659 0 0 1-.013.049l.152.123c.008.007.01.019.005.028l-.094.162a.022.022 0 0 1-.026.01l-.183-.07a.668.668 0 0 1-.035.035l.07.183c.003.01 0 .021-.01.026L1.2 1.64a.022.022 0 0 1-.028-.005l-.123-.152a.656.656 0 0 1-.049.013l-.03.193a.022.022 0 0 1-.022.019zm-.169-.044h.15l.031-.19a.022.022 0 0 1 .017-.017.613.613 0 0 0 .072-.02.022.022 0 0 1 .024.007l.121.15.13-.076-.068-.18a.022.022 0 0 1 .006-.023.622.622 0 0 0 .053-.053.022.022 0 0 1 .023-.006l.18.068.075-.13-.149-.121a.022.022 0 0 1-.007-.024.613.613 0 0 0 .02-.072.022.022 0 0 1 .018-.017l.19-.03v-.15l-.19-.031A.022.022 0 0 1 1.456.73a.613.613 0 0 0-.02-.073.022.022 0 0 1 .007-.023l.15-.121-.076-.13-.18.068a.022.022 0 0 1-.023-.006.622.622 0 0 0-.053-.053.022.022 0 0 1-.006-.024l.068-.18-.13-.075-.121.15a.022.022 0 0 1-.024.006.612.612 0 0 0-.072-.019A.022.022 0 0 1 .96.233l-.03-.19h-.15l-.031.19A.022.022 0 0 1 .73.251a.613.613 0 0 0-.073.02.022.022 0 0 1-.023-.008L.514.114.384.19l.068.18a.022.022 0 0 1-.006.023.623.623 0 0 0-.053.053.022.022 0 0 1-.024.006L.19.383l-.075.13.15.122C.27.64.273.65.27.658a.611.611 0 0 0-.02.073.022.022 0 0 1-.017.017l-.19.03v.15l.19.031a.022.022 0 0 1 .018.017.614.614 0 0 0 .02.072.022.022 0 0 1-.008.024l-.149.121.076.13.18-.068a.022.022 0 0 1 .023.006.62.62 0 0 0 .053.053c.007.005.009.015.006.023l-.069.18.13.075.122-.149a.022.022 0 0 1 .023-.007.613.613 0 0 0 .073.02.022.022 0 0 1 .017.018l.03.19z" opacity="1" data-original="#666666" class=""></path><g fill="#ffbd35"><path d="M.853 1.349A.496.496 0 1 1 .854.357a.496.496 0 0 1 0 .992zm0-.948a.453.453 0 1 0 .001.906.453.453 0 0 0 0-.906z" fill="#f1b44c" opacity="1" data-original="#ffbd35" class=""></path><path d="M.754 1A.022.022 0 0 1 .743.997L.559.881a.022.022 0 0 1 0-.036l.184-.12a.022.022 0 1 1 .023.037l-.155.1.155.098A.022.022 0 0 1 .754 1zM.952.985a.022.022 0 0 1-.011-.04l.155-.098-.155-.1A.022.022 0 1 1 .964.71l.184.119a.022.022 0 0 1 0 .036L.964.981a.022.022 0 0 1-.012.004zM.782 1.14l-.005-.001a.022.022 0 0 1-.015-.027L.903.583a.022.022 0 0 1 .042.011l-.142.53a.022.022 0 0 1-.02.015z" fill="#f1b44c" opacity="1" data-original="#ffbd35" class=""></path></g></g></svg>