<?xml version="1.0"?>
<svg xmlns="http://www.w3.org/2000/svg" xmlns:xlink="http://www.w3.org/1999/xlink" xmlns:svgjs="http://svgjs.com/svgjs" version="1.1" width="512" height="512" x="0" y="0" viewBox="0 0 64 64" style="enable-background:new 0 0 512 512" xml:space="preserve" class=""><g transform="matrix(0.7500000000000001,0,0,0.7500000000000001,7.978386878967282,8.034844577312466)"><g xmlns="http://www.w3.org/2000/svg" id="Layer_72" data-name="Layer 72"><path d="m35.34 19.59-2.84 11.89 12.38-2.73 15.16-16.71-1.34-5.84-4.4-2.15-4.6.91z" fill="#f1b44c" data-original="#78b9eb" class=""/><g fill="#006df0"><path d="m57 32.25a1.25 1.25 0 0 0 -1.25 1.25v23.66a1.59 1.59 0 0 1 -1.59 1.59h-47.32a1.59 1.59 0 0 1 -1.59-1.59v-47.32a1.59 1.59 0 0 1 1.59-1.59h23.66a1.25 1.25 0 0 0 0-2.5h-23.66a4.09 4.09 0 0 0 -4.09 4.09v47.32a4.09 4.09 0 0 0 4.09 4.09h47.32a4.09 4.09 0 0 0 4.09-4.09v-23.66a1.25 1.25 0 0 0 -1.25-1.25z" fill="#333333" data-original="#006df0" class=""/><path d="m58.94 5.17a7.3 7.3 0 0 0 -10.33 0l-14.07 14.07a1.26 1.26 0 0 0 -.33.57l-3.06 11.62a1.26 1.26 0 0 0 1.21 1.57 1.12 1.12 0 0 0 .32 0l11.62-3.1a1.26 1.26 0 0 0 .57-.33l14.07-14.07a7.31 7.31 0 0 0 0-10.33zm-1.77 8.57-13.83 13.83-9.22 2.43 2.42-9.23 13.84-13.83a4.79 4.79 0 0 1 6.79 0 4.8 4.8 0 0 1 0 6.8z" fill="#333333" data-original="#006df0" class=""/></g></g></g></svg>
