<?xml version="1.0"?>
<svg xmlns="http://www.w3.org/2000/svg" xmlns:xlink="http://www.w3.org/1999/xlink" xmlns:svgjs="http://svgjs.com/svgjs" version="1.1" width="512" height="512" x="0" y="0" viewBox="0 0 32 32" style="enable-background:new 0 0 512 512" xml:space="preserve" class=""><g transform="matrix(1.25,0,0,1.25,-4,-4)"><path xmlns="http://www.w3.org/2000/svg" d="m26 32h-20c-3.314 0-6-2.686-6-6v-20c0-3.314 2.686-6 6-6h20c3.314 0 6 2.686 6 6v20c0 3.314-2.686 6-6 6z" fill="#00000000" data-original="#e3f8fa" class=""/><path xmlns="http://www.w3.org/2000/svg" d="m16 8c-1.838 0-3.333 1.458-3.333 3.25 0 .377.066.744.195 1.091.073.196.26.325.468.325h5.339c.209 0 .396-.13.468-.325.13-.347.195-.715.195-1.091.001-1.792-1.494-3.25-3.332-3.25zm0 3.333c-.551 0-1-.449-1-1s.449-1 1-1 1 .449 1 1c0 .552-.449 1-1 1z" fill="#f1b44c" data-original="#26c6da" class=""/><path xmlns="http://www.w3.org/2000/svg" d="m14 14h4v2.667h-4z" fill="#333333" data-original="#8ce1eb" class=""/><path xmlns="http://www.w3.org/2000/svg" d="m19.411 22.506c-.932-.763-2.143-1.183-3.411-1.183s-2.48.42-3.411 1.183l-.276.225c1.019.792 2.297 1.269 3.687 1.269s2.668-.477 3.687-1.269z" fill="#333333" data-original="#8ce1eb" class=""/><path xmlns="http://www.w3.org/2000/svg" d="m11.744 21.474c1.169-.957 2.68-1.484 4.256-1.484s3.086.527 4.256 1.484l.395.323c.842-1.027 1.349-2.336 1.349-3.761 0-1.415-.507-2.787-1.427-3.861-.095-.111-.234-.175-.38-.175h-.86v2.667c0 .735-.598 1.333-1.333 1.333h-4c-.735 0-1.333-.598-1.333-1.333v-2.667h-.86c-.146 0-.285.064-.38.175-.92 1.074-1.427 2.445-1.427 3.861 0 1.425.507 2.735 1.349 3.762z" fill="#f1b44c" data-original="#26c6da" class=""/></g></svg>
