<svg xmlns="http://www.w3.org/2000/svg" version="1.1" xmlns:xlink="http://www.w3.org/1999/xlink" width="512" height="512" x="0" y="0" viewBox="0 0 512 512" style="enable-background:new 0 0 512 512" xml:space="preserve" class=""><g transform="matrix(0.85,0,0,0.85,38.40000028610231,38.399923896789545)"><g fill-rule="evenodd" clip-rule="evenodd"><path fill="#f1b44c" d="M125.698 126.351c-24.099 0-43.702-19.605-43.702-43.705 0-24.095 19.604-43.7 43.7-43.7 24.098 0 43.7 19.602 43.7 43.7-.001 24.099-19.599 43.705-43.698 43.705zm-.017 12c48.117 0 88.786 35.375 95.182 83.058l.304 2.266H30.224l.304-2.266c6.398-47.67 47.059-83.054 95.153-83.058zm.015 149.975c24.098 0 43.7 19.602 43.7 43.7 0 24.1-19.6 43.7-43.7 43.7-24.098 0-43.7-19.602-43.7-43.7 0-24.096 19.604-43.7 43.7-43.7zm0 99.399c48.098 0 88.773 35.388 95.167 83.062l.304 2.266H30.224l.304-2.266c6.399-47.67 47.07-83.062 95.168-83.062z" opacity="1" data-original="#434b66" class=""></path><path fill="#333333" d="M274.724 61.304a8.002 8.002 0 0 0 8 8.004h191.052c4.415 0 8-3.585 8-8.004 0-4.414-3.585-8-8-8H282.724c-4.419 0-8 3.586-8 8zm112.517 360.13H282.724c-4.419 0-8 3.585-8 8a8 8 0 0 0 8 8h104.517c4.424 0 8-3.58 8-8 0-4.415-3.576-8-8-8zm86.535-59.373H282.724c-4.419 0-8 3.581-8 8s3.581 8 8 8h191.052a8.001 8.001 0 0 0 0-16zm-191.052-43.378h191.052a8.001 8.001 0 0 0 0-16H282.724c-4.419 0-8 3.58-8 8s3.581 8 8 8zm104.517-146.629H282.724c-4.419 0-8 3.58-8 8s3.581 8 8 8h104.517c4.424 0 8-3.58 8-8s-3.576-8-8-8zm86.535-59.372H282.724c-4.419 0-8 3.58-8 8 0 4.415 3.581 8 8 8h191.052c4.415 0 8-3.585 8-8 0-4.42-3.585-8-8-8z" opacity="1" data-original="#ffb229" class=""></path></g></g></svg>