<?xml version="1.0"?>
<svg xmlns="http://www.w3.org/2000/svg" xmlns:xlink="http://www.w3.org/1999/xlink" xmlns:svgjs="http://svgjs.com/svgjs" version="1.1" width="512" height="512" x="0" y="0" viewBox="0 0 512.004 512.004" style="enable-background:new 0 0 512 512" xml:space="preserve" class=""><g transform="matrix(0.6,0,0,0.6,102.40089111328129,102.40071105957031)">
<polygon xmlns="http://www.w3.org/2000/svg" style="" points="328.986,435.152 503.467,255.952 328.986,76.752 281.6,125.418 376.132,221.819   8.533,221.819 8.533,290.085 376.132,290.085 281.6,386.486 " fill="#f1b44c" data-original="#ebba16" class=""/>
<path xmlns="http://www.w3.org/2000/svg" style="" d="M328.986,443.685c-2.304,0-4.506-0.93-6.118-2.577l-47.386-48.666  c-3.234-3.319-3.226-8.619,0.017-11.93l80.307-81.894H8.533c-4.71,0-8.533-3.823-8.533-8.533v-68.267  c0-4.71,3.823-8.533,8.533-8.533h347.281l-80.307-81.894c-3.243-3.311-3.251-8.61-0.017-11.93l47.386-48.666  c3.209-3.302,9.02-3.302,12.228,0l174.481,179.2c3.226,3.311,3.226,8.593,0,11.913l-174.481,179.2  C333.491,442.755,331.29,443.685,328.986,443.685z M293.53,386.503l35.456,36.412l162.577-166.963L328.986,88.98l-35.456,36.412  l88.695,90.445c2.406,2.458,3.106,6.11,1.775,9.276c-1.331,3.166-4.429,5.231-7.868,5.231H17.067v51.2h359.066  c3.439,0,6.536,2.065,7.868,5.231c1.331,3.166,0.631,6.827-1.775,9.276L293.53,386.503z" fill="#333333" data-original="#4d007e" class=""/>
<g xmlns="http://www.w3.org/2000/svg">
</g>
<g xmlns="http://www.w3.org/2000/svg">
</g>
<g xmlns="http://www.w3.org/2000/svg">
</g>
<g xmlns="http://www.w3.org/2000/svg">
</g>
<g xmlns="http://www.w3.org/2000/svg">
</g>
<g xmlns="http://www.w3.org/2000/svg">
</g>
<g xmlns="http://www.w3.org/2000/svg">
</g>
<g xmlns="http://www.w3.org/2000/svg">
</g>
<g xmlns="http://www.w3.org/2000/svg">
</g>
<g xmlns="http://www.w3.org/2000/svg">
</g>
<g xmlns="http://www.w3.org/2000/svg">
</g>
<g xmlns="http://www.w3.org/2000/svg">
</g>
<g xmlns="http://www.w3.org/2000/svg">
</g>
<g xmlns="http://www.w3.org/2000/svg">
</g>
<g xmlns="http://www.w3.org/2000/svg">
</g>
</g></svg>
