<svg xmlns="http://www.w3.org/2000/svg" version="1.1" xmlns:xlink="http://www.w3.org/1999/xlink" width="512" height="512" x="0" y="0" viewBox="0 0 36 36" style="enable-background:new 0 0 512 512" xml:space="preserve" class=""><g transform="matrix(0.9100000000000003,0,0,0.9100000000000003,1.6199999999999903,1.6199999999999903)"><g fill-rule="evenodd"><path fill="#333333" d="M2 10h32V6.57A4.58 4.58 0 0 0 29.43 2H6.57A4.58 4.58 0 0 0 2 6.57zm26.29-4.57a1.14 1.14 0 1 1-1.15 1.14 1.14 1.14 0 0 1 1.15-1.14zm-4.58 0a1.14 1.14 0 1 1-1.14 1.14 1.14 1.14 0 0 1 1.14-1.14zm-16 0h4.58a1.14 1.14 0 0 1 0 2.28H7.71a1.14 1.14 0 0 1 0-2.28z" opacity="1" data-original="#072a30"></path><path fill="#f1b44c" d="M2 12.29v17.14A4.58 4.58 0 0 0 6.57 34h22.86A4.58 4.58 0 0 0 34 29.43V12.29zm8 17.14a2.29 2.29 0 1 1 2.29-2.29A2.3 2.3 0 0 1 10 29.43zm0-9.14A2.29 2.29 0 1 1 12.29 18 2.3 2.3 0 0 1 10 20.29zm18.29 8H16.86a1.15 1.15 0 1 1 0-2.29h11.43a1.15 1.15 0 0 1 0 2.29zm0-9.15H16.86a1.14 1.14 0 1 1 0-2.28h11.43a1.14 1.14 0 0 1 0 2.28z" opacity="1" data-original="#43d685" class=""></path></g></g></svg>