<?xml version="1.0"?>
<svg xmlns="http://www.w3.org/2000/svg" xmlns:xlink="http://www.w3.org/1999/xlink" xmlns:svgjs="http://svgjs.com/svgjs" version="1.1" width="512" height="512" x="0" y="0" viewBox="0 0 437 437.81362" style="enable-background:new 0 0 512 512" xml:space="preserve" class=""><g transform="matrix(4.776122516674714e-17,0.7799999999999941,-0.7800000000000059,4.7761225166746404e-17,390.05937486648696,102.44249933719728)"><path xmlns="http://www.w3.org/2000/svg" d="m149.3125 7.996094 140.910156 210.910156-140.910156 210.910156-140.910156-210.910156zm0 0" fill="#f1b44c" data-original="#00efd1" style="" class=""/><path xmlns="http://www.w3.org/2000/svg" d="m142.660156 434.261719c1.484375 2.21875 3.980469 3.550781 6.652344 3.550781 2.667969 0 5.164062-1.332031 6.648438-3.550781l140.910156-210.910157c1.796875-2.691406 1.796875-6.199218 0-8.890624l-140.90625-210.90625c-1.484375-2.222657-3.980469-3.554688-6.648438-3.554688-2.671875 0-5.167968 1.332031-6.652344 3.554688l-140.910156 210.90625c-1.7968748 2.691406-1.7968748 6.199218 0 8.890624zm6.652344-411.863281 131.289062 196.507812-131.289062 196.507812-131.289062-196.507812zm0 0" fill="#333333" data-original="#083863" style="" class=""/></g></svg>
