<?xml version="1.0"?>
<svg xmlns="http://www.w3.org/2000/svg" xmlns:xlink="http://www.w3.org/1999/xlink" xmlns:svgjs="http://svgjs.com/svgjs" version="1.1" width="512" height="512" x="0" y="0" viewBox="0 0 64 64" style="enable-background:new 0 0 512 512" xml:space="preserve" class=""><g transform="matrix(0.8,0,0,0.8,6.39995183944702,6.400044298171995)"><path xmlns="http://www.w3.org/2000/svg" d="m51.211 35.438-1.566-.509a.668.668 0 0 1 -.453-.726 17.28 17.28 0 0 0 0-4.406.668.668 0 0 1 .453-.726l1.566-.509a.667.667 0 0 0 .428-.84l-1.236-3.8a.666.666 0 0 0 -.84-.428l-1.569.506a.667.667 0 0 1 -.791-.321 17.379 17.379 0 0 0 -2.59-3.566.665.665 0 0 1 -.061-.851l.969-1.335a.666.666 0 0 0 -.147-.927l-3.236-2.351a.668.668 0 0 0 -.932.148l-.969 1.334a.666.666 0 0 1 -.829.2 17.22 17.22 0 0 0 -4.191-1.365.665.665 0 0 1 -.55-.652v-1.647a.667.667 0 0 0 -.667-.667h-4a.667.667 0 0 0 -.667.667v1.646a.665.665 0 0 1 -.55.652 17.22 17.22 0 0 0 -4.191 1.365.666.666 0 0 1 -.829-.2l-.969-1.334a.668.668 0 0 0 -.932-.148l-3.236 2.352a.666.666 0 0 0 -.147.931l.969 1.335a.665.665 0 0 1 -.061.851 17.379 17.379 0 0 0 -2.59 3.566.667.667 0 0 1 -.791.321l-1.569-.509a.666.666 0 0 0 -.84.428l-1.236 3.8a.667.667 0 0 0 .428.84l1.566.509a.668.668 0 0 1 .453.726 17.28 17.28 0 0 0 0 4.406.668.668 0 0 1 -.453.726l-1.566.509a.667.667 0 0 0 -.428.84l1.236 3.8a.666.666 0 0 0 .84.428l1.569-.507a.667.667 0 0 1 .791.321 17.379 17.379 0 0 0 2.59 3.566.665.665 0 0 1 .061.851l-.969 1.335a.666.666 0 0 0 .147.931l3.236 2.351a.668.668 0 0 0 .932-.148l.969-1.334a.667.667 0 0 1 .829-.205 17.134 17.134 0 0 0 4.191 1.365.667.667 0 0 1 .55.653v1.646a.667.667 0 0 0 .667.668h4a.667.667 0 0 0 .667-.667v-1.646a.667.667 0 0 1 .55-.653 17.134 17.134 0 0 0 4.191-1.365.667.667 0 0 1 .829.205l.969 1.334a.668.668 0 0 0 .932.148l3.236-2.351a.666.666 0 0 0 .147-.931l-.969-1.335a.665.665 0 0 1 .061-.851 17.379 17.379 0 0 0 2.59-3.566.667.667 0 0 1 .791-.322l1.569.509a.666.666 0 0 0 .84-.428l1.236-3.8a.667.667 0 0 0 -.428-.843zm-19.211 8.562a12 12 0 1 1 12-12 12 12 0 0 1 -12 12z" fill="#333333" data-original="#62768c" class=""/><path xmlns="http://www.w3.org/2000/svg" d="m28 26v12l10-6z" fill="#f1b44c" data-original="#5992de" class=""/><rect xmlns="http://www.w3.org/2000/svg" fill="#333333" height="6" rx="1" transform="matrix(0 1 -1 0 64.5 -42.5)" width="6" x="50.5" y="8" data-original="#d98287" class=""/><rect xmlns="http://www.w3.org/2000/svg" fill="#333333" height="6" rx="1" width="6" x="7.5" y="50" data-original="#d98287" class=""/><g xmlns="http://www.w3.org/2000/svg" fill="#89b7e6"><path d="m5.148 47.5a31.007 31.007 0 0 1 43.386-41.728l-1.068 1.692a29.007 29.007 0 0 0 -40.587 39.036z" fill="#f1b44c" data-original="#89b7e6" class=""/><path d="m32 63a30.915 30.915 0 0 1 -16.534-4.772l1.068-1.692a29.007 29.007 0 0 0 40.587-39.036l1.731-1a31.008 31.008 0 0 1 -26.852 46.5z" fill="#f1b44c" data-original="#89b7e6" class=""/></g></g></svg>
