<?xml version="1.0"?>
<svg xmlns="http://www.w3.org/2000/svg" xmlns:xlink="http://www.w3.org/1999/xlink" xmlns:svgjs="http://svgjs.com/svgjs" version="1.1" width="512" height="512" x="0" y="0" viewBox="0 0 128 128" style="enable-background:new 0 0 512 512" xml:space="preserve" class=""><g transform="matrix(0.7999999999999999,0,0,0.7999999999999999,12.800001716613785,12.804048538208)"><g xmlns="http://www.w3.org/2000/svg"><path d="M108.248,65.75A1.75,1.75,0,0,1,106.5,64V51.074a4.815,4.815,0,0,1,2.028-3.918,4.528,4.528,0,0,1,4.157-.609,4.887,4.887,0,0,0,1.326.265,4.945,4.945,0,1,0-1.222-9.643,4.87,4.87,0,0,1-4.354-.678,4.66,4.66,0,0,1-1.935-3.81V21.5H98.322a1.311,1.311,0,0,0-1.065.556,1.057,1.057,0,0,0-.156.976,8.505,8.505,0,0,1-7.852,11.219h-.127a8.448,8.448,0,0,1-8.034-11.042A1.336,1.336,0,0,0,80.908,22a1.181,1.181,0,0,0-.978-.494H64A1.75,1.75,0,0,1,64,18H79.93a4.662,4.662,0,0,1,3.809,1.935,4.873,4.873,0,0,1,.679,4.354,4.944,4.944,0,1,0,9.378-.1A4.525,4.525,0,0,1,94.4,20.03,4.819,4.819,0,0,1,98.322,18h9.926a1.75,1.75,0,0,1,1.75,1.75v12.93a1.186,1.186,0,0,0,.494.98,1.341,1.341,0,0,0,1.217.178,8.445,8.445,0,1,1-.179,16.013,1.062,1.062,0,0,0-.976.157A1.311,1.311,0,0,0,110,51.074V64A1.75,1.75,0,0,1,108.248,65.75Z" fill="#333333" data-original="#27276d" class=""/><path d="M64,110H48.07a4.662,4.662,0,0,1-3.809-1.935,4.873,4.873,0,0,1-.679-4.354,4.944,4.944,0,1,0-9.378.1,4.525,4.525,0,0,1-.607,4.156A4.819,4.819,0,0,1,29.678,110H19.752a1.75,1.75,0,0,1-1.75-1.75V95.319a1.186,1.186,0,0,0-.494-.98,1.338,1.338,0,0,0-1.217-.178,8.445,8.445,0,1,1,.179-16.013,1.063,1.063,0,0,0,.976-.157A1.311,1.311,0,0,0,18,76.926V64a1.75,1.75,0,0,1,3.5,0V76.926a4.815,4.815,0,0,1-2.028,3.918,4.528,4.528,0,0,1-4.157.609,4.887,4.887,0,0,0-1.326-.265,5.039,5.039,0,0,0-5.24,4.861A4.907,4.907,0,0,0,10.173,89.6a5,5,0,0,0,5.04,1.236,4.868,4.868,0,0,1,4.354.678,4.66,4.66,0,0,1,1.935,3.81V106.5h8.176a1.311,1.311,0,0,0,1.065-.556,1.057,1.057,0,0,0,.156-.976,8.505,8.505,0,0,1,7.852-11.219,8.443,8.443,0,0,1,8.569,8.443,8.42,8.42,0,0,1-.408,2.6,1.336,1.336,0,0,0,.18,1.216,1.181,1.181,0,0,0,.978.494H64a1.75,1.75,0,0,1,0,3.5Z" fill="#333333" data-original="#27276d" class=""/><path d="M86.125,122.75H86a8.449,8.449,0,0,1-7.852-11.22,1.057,1.057,0,0,0-.156-.976A1.31,1.31,0,0,0,76.926,110H64a1.75,1.75,0,0,1-1.75-1.75V95.319a1.182,1.182,0,0,0-.494-.979,1.337,1.337,0,0,0-1.217-.179,8.446,8.446,0,1,1,.179-16.013,1.062,1.062,0,0,0,.976-.157,1.311,1.311,0,0,0,.556-1.065V64A1.75,1.75,0,0,1,64,62.25H76.926a4.815,4.815,0,0,1,3.919,2.029,4.526,4.526,0,0,1,.607,4.157,4.887,4.887,0,0,0-.264,1.323h0a4.945,4.945,0,0,0,8.407,3.82,4.951,4.951,0,0,0,1.235-5.04,4.872,4.872,0,0,1,.679-4.354,4.659,4.659,0,0,1,3.809-1.935h12.93A1.75,1.75,0,0,1,110,64V79.93a4.661,4.661,0,0,1-1.935,3.81,4.869,4.869,0,0,1-4.353.678,5,5,0,0,0-5.04,1.235,4.945,4.945,0,0,0,5.143,8.143,4.531,4.531,0,0,1,4.157.607A4.82,4.82,0,0,1,110,98.323v9.926a1.75,1.75,0,0,1-1.75,1.75H95.318a1.185,1.185,0,0,0-.979.493,1.338,1.338,0,0,0-.179,1.216,8.445,8.445,0,0,1-8.035,11.042ZM65.75,106.5H76.926a4.818,4.818,0,0,1,3.92,2.029,4.527,4.527,0,0,1,.606,4.156,4.887,4.887,0,0,0-.264,1.324,4.945,4.945,0,0,0,8.407,3.82,4.952,4.952,0,0,0,1.235-5.041,4.873,4.873,0,0,1,.679-4.354,4.661,4.661,0,0,1,3.809-1.934H106.5V98.323a1.311,1.311,0,0,0-.555-1.066,1.063,1.063,0,0,0-.977-.156,8.444,8.444,0,1,1-.178-16.013A1.34,1.34,0,0,0,106,80.909a1.182,1.182,0,0,0,.494-.979V65.75H95.318a1.183,1.183,0,0,0-.979.494,1.34,1.34,0,0,0-.179,1.217,8.435,8.435,0,1,1-16.466,2.092h0a8.41,8.41,0,0,1,.453-2.271,1.059,1.059,0,0,0-.156-.977,1.313,1.313,0,0,0-1.065-.555H65.75V76.926a4.818,4.818,0,0,1-2.029,3.919,4.528,4.528,0,0,1-4.157.608,4.873,4.873,0,0,0-1.324-.265,4.945,4.945,0,1,0,1.221,9.643,4.87,4.87,0,0,1,4.353.678,4.658,4.658,0,0,1,1.936,3.81Z" fill="#f1b44c" data-original="#fd5c70" class=""/><path d="M64,65.75H51.074a4.815,4.815,0,0,1-3.919-2.029,4.526,4.526,0,0,1-.607-4.157,4.887,4.887,0,0,0,.264-1.323h0A5.039,5.039,0,0,0,41.95,53a4.8,4.8,0,0,0-3.545,1.422,4.951,4.951,0,0,0-1.235,5.04,4.872,4.872,0,0,1-.679,4.354,4.659,4.659,0,0,1-3.809,1.935H19.752A1.75,1.75,0,0,1,18,64V48.07a4.659,4.659,0,0,1,1.936-3.81,4.866,4.866,0,0,1,4.352-.678,5,5,0,0,0,5.04-1.235A4.945,4.945,0,0,0,24.187,34.2,4.527,4.527,0,0,1,20.03,33.6,4.82,4.82,0,0,1,18,29.678V19.751A1.75,1.75,0,0,1,19.752,18h12.93a1.185,1.185,0,0,0,.979-.493,1.338,1.338,0,0,0,.179-1.216A8.454,8.454,0,0,1,35.948,7.68,8.472,8.472,0,0,1,50.306,14.2a8.425,8.425,0,0,1-.453,2.272,1.057,1.057,0,0,0,.156.976A1.31,1.31,0,0,0,51.074,18H64a1.75,1.75,0,0,1,1.75,1.75v12.93a1.182,1.182,0,0,0,.494.979,1.337,1.337,0,0,0,1.217.179,8.446,8.446,0,1,1-.179,16.013,1.062,1.062,0,0,0-.976.157,1.311,1.311,0,0,0-.556,1.065V64A1.75,1.75,0,0,1,64,65.75ZM41.875,49.5H42a8.54,8.54,0,0,1,8.305,8.948h0a8.41,8.41,0,0,1-.453,2.271,1.059,1.059,0,0,0,.156.977,1.313,1.313,0,0,0,1.065.555H62.25V51.074a4.818,4.818,0,0,1,2.029-3.919,4.529,4.529,0,0,1,4.157-.608,4.873,4.873,0,0,0,1.324.265,4.945,4.945,0,0,0,3.819-8.407,5,5,0,0,0-5.039-1.236,4.867,4.867,0,0,1-4.354-.678,4.658,4.658,0,0,1-1.936-3.81V21.5H51.074a4.818,4.818,0,0,1-3.92-2.029,4.527,4.527,0,0,1-.606-4.156,4.887,4.887,0,0,0,.264-1.324A5.04,5.04,0,0,0,41.95,8.75a4.8,4.8,0,0,0-3.545,1.422,4.952,4.952,0,0,0-1.235,5.041,4.873,4.873,0,0,1-.679,4.354A4.661,4.661,0,0,1,32.682,21.5H21.5v8.177a1.31,1.31,0,0,0,.555,1.065,1.054,1.054,0,0,0,.977.156,8.444,8.444,0,1,1,.178,16.013A1.335,1.335,0,0,0,22,47.091a1.182,1.182,0,0,0-.494.979V62.25h11.18a1.183,1.183,0,0,0,.979-.494,1.34,1.34,0,0,0,.179-1.217A8.445,8.445,0,0,1,41.875,49.5Zm6.684,8.846h0Z" fill="#333333" data-original="#27276d" class=""/></g></g></svg>
