<svg id="svg" version="1.1" xmlns="http://www.w3.org/2000/svg" xmlns:xlink="http://www.w3.org/1999/xlink" width="400" height="121.51898734177216" viewBox="0, 0, 400,121.51898734177216"><g id="svgg"><path id="path0" d="M19.496 2.500 C 16.487 2.699,16.014 3.162,15.705 6.207 C 15.644 6.805,15.492 7.138,15.083 7.573 C 14.707 7.971,14.506 8.379,14.427 8.903 C 14.365 9.319,14.251 9.698,14.174 9.745 C 14.098 9.793,13.982 10.429,13.917 11.159 C 13.808 12.395,13.768 12.501,13.345 12.688 C 12.798 12.930,12.583 13.387,12.314 14.868 C 12.134 15.861,12.059 16.005,11.649 16.148 C 11.152 16.321,10.761 17.281,10.555 18.833 C 10.489 19.323,10.321 19.699,10.069 19.917 C 9.558 20.358,9.021 22.034,8.889 23.600 C 8.820 24.408,8.703 24.894,8.563 24.948 C 8.025 25.154,7.314 27.047,7.215 28.538 C 7.136 29.717,7.063 30.010,6.830 30.084 C 6.548 30.174,6.206 30.919,5.837 32.250 C 5.735 32.617,5.607 33.779,5.552 34.833 C 5.464 36.511,5.403 36.808,5.063 37.216 C 4.321 38.107,4.007 40.096,3.883 44.692 C 3.786 48.288,3.784 48.302,3.389 48.482 C 2.572 48.855,2.344 51.588,2.338 61.083 C 2.333 69.950,2.570 72.645,3.390 73.018 C 3.786 73.199,3.786 73.201,3.881 76.974 C 4.001 81.733,4.369 83.769,5.239 84.491 C 5.439 84.657,5.502 85.060,5.510 86.229 C 5.526 88.710,6.073 91.058,6.751 91.556 C 7.098 91.811,7.168 92.003,7.177 92.722 C 7.197 94.454,7.715 96.437,8.301 97.023 C 8.660 97.382,8.789 97.734,8.945 98.778 C 9.225 100.645,9.529 101.575,10.024 102.070 C 10.326 102.371,10.492 102.761,10.570 103.351 C 10.739 104.626,11.100 105.389,11.650 105.633 C 12.088 105.826,12.139 105.941,12.249 106.964 C 12.399 108.373,12.704 108.982,13.318 109.105 C 13.772 109.196,13.792 109.243,13.897 110.475 C 14.144 113.370,14.553 115.056,15.162 115.697 C 15.527 116.080,15.850 116.686,16.076 117.412 C 16.426 118.533,16.428 118.535,17.421 118.972 L 18.417 119.410 27.255 119.463 C 38.500 119.531,39.237 119.428,39.704 117.725 C 40.235 115.789,39.780 112.992,38.869 112.586 C 38.627 112.477,38.467 112.220,38.403 111.836 C 38.349 111.513,38.165 110.950,37.995 110.583 C 37.824 110.217,37.642 109.778,37.591 109.609 C 37.540 109.440,37.352 109.263,37.173 109.217 C 36.934 109.154,36.818 108.928,36.734 108.358 C 36.671 107.932,36.480 107.404,36.310 107.186 C 36.139 106.967,36.000 106.653,36.000 106.487 C 36.000 106.321,35.833 106.069,35.630 105.926 C 35.394 105.761,35.188 105.350,35.061 104.792 C 34.707 103.238,34.431 102.618,33.977 102.354 C 33.578 102.122,33.527 101.974,33.423 100.758 C 33.351 99.912,33.190 99.213,32.988 98.865 C 32.811 98.562,32.667 98.212,32.667 98.086 C 32.667 97.960,32.490 97.719,32.274 97.549 C 31.913 97.264,31.865 97.040,31.673 94.745 C 31.365 91.053,31.027 89.399,30.421 88.603 C 30.051 88.119,30.000 87.888,30.000 86.705 C 30.000 83.588,29.261 80.500,28.514 80.500 C 28.444 80.500,28.337 79.140,28.277 77.479 C 28.073 71.850,27.711 69.109,27.071 68.349 L 26.667 67.869 26.667 61.543 C 26.667 55.426,26.678 55.208,27.001 54.916 C 27.643 54.334,28.057 51.149,28.267 45.174 C 28.383 41.851,28.396 41.755,28.796 41.356 C 29.435 40.717,29.998 38.056,29.999 35.673 C 30.000 34.540,30.038 34.399,30.425 34.090 C 31.041 33.598,31.490 31.060,31.764 26.520 C 31.861 24.924,31.925 24.612,32.166 24.548 C 32.655 24.421,33.166 23.260,33.375 21.802 C 33.485 21.040,33.652 20.323,33.746 20.209 C 33.840 20.095,34.153 19.750,34.442 19.443 C 34.903 18.952,34.981 18.727,35.087 17.597 C 35.194 16.456,35.252 16.292,35.597 16.161 C 36.101 15.970,36.618 14.944,36.763 13.850 C 36.861 13.116,36.952 12.947,37.369 12.732 C 37.951 12.430,38.257 11.767,38.420 10.452 C 38.525 9.608,38.601 9.456,39.033 9.233 C 40.837 8.300,40.066 3.767,37.959 2.918 C 36.619 2.378,25.229 2.120,19.496 2.500 M163.000 2.509 C 160.307 2.724,160.068 2.868,159.551 4.583 C 159.151 5.912,159.073 115.651,159.472 117.000 C 159.854 118.294,160.034 118.516,161.083 118.977 L 162.083 119.417 177.750 119.417 C 195.041 119.417,194.334 119.459,194.889 118.386 C 195.819 116.588,195.762 97.000,194.827 97.000 C 194.761 97.000,194.613 96.772,194.497 96.494 C 194.107 95.552,192.773 95.333,187.405 95.333 L 183.667 95.333 183.667 61.019 L 183.667 26.704 188.292 26.620 C 194.210 26.513,194.450 26.447,195.098 24.750 C 195.619 23.386,195.588 5.366,195.063 4.500 C 194.869 4.179,194.663 3.718,194.606 3.475 C 194.463 2.868,193.844 2.683,191.333 2.497 C 188.874 2.315,165.298 2.325,163.000 2.509 M301.796 2.509 C 300.090 2.696,299.960 2.786,299.593 4.029 C 299.422 4.609,299.148 5.276,298.985 5.512 C 298.363 6.405,298.317 7.170,298.367 15.667 C 298.421 24.711,298.343 23.988,299.430 25.493 C 300.153 26.492,300.390 26.534,305.958 26.626 L 311.000 26.710 311.000 61.002 L 311.000 95.294 306.125 95.368 C 300.726 95.449,300.119 95.552,299.900 96.423 C 299.839 96.668,299.600 97.216,299.369 97.642 C 299.138 98.068,298.829 98.642,298.683 98.917 C 298.341 99.558,298.181 115.457,298.505 116.566 C 298.754 117.419,299.746 118.852,300.306 119.167 C 300.942 119.525,332.086 119.546,333.000 119.189 C 334.656 118.542,334.634 118.562,334.994 117.352 C 335.332 116.218,335.333 116.030,335.331 61.315 C 335.329 0.388,335.420 5.087,334.222 4.101 C 333.876 3.816,333.446 3.414,333.266 3.208 C 333.086 3.001,332.671 2.743,332.344 2.635 C 331.628 2.397,303.859 2.283,301.796 2.509 M363.667 2.502 C 360.548 2.714,360.250 3.096,360.250 6.889 L 360.250 8.694 360.941 9.305 C 361.467 9.770,361.657 10.077,361.732 10.583 C 361.928 11.906,362.168 12.482,362.616 12.702 C 363.148 12.963,363.228 13.112,363.613 14.553 C 363.861 15.483,364.011 15.748,364.434 16.010 C 364.914 16.307,364.959 16.416,365.051 17.515 C 365.159 18.806,365.460 19.430,366.092 19.670 C 366.316 19.755,366.501 19.921,366.501 20.038 C 366.515 22.096,367.114 24.258,367.738 24.496 C 368.192 24.668,368.266 25.001,368.424 27.583 C 368.512 29.035,368.802 31.225,369.102 32.712 C 369.153 32.967,369.387 33.403,369.621 33.681 C 370.016 34.150,370.057 34.360,370.175 36.469 C 370.343 39.492,370.649 40.841,371.318 41.511 L 371.833 42.026 371.837 44.638 C 371.839 46.075,371.950 48.375,372.085 49.750 C 372.219 51.125,372.330 52.630,372.331 53.095 C 372.334 54.130,372.765 55.651,373.092 55.777 C 373.395 55.893,373.460 65.667,373.158 65.667 C 372.806 65.667,372.493 66.877,372.328 68.873 C 372.236 69.997,372.087 71.779,371.999 72.833 C 371.911 73.887,371.837 75.709,371.836 76.880 C 371.834 78.641,371.789 79.028,371.577 79.109 C 370.909 79.365,370.383 81.635,370.218 84.973 C 370.121 86.952,370.099 87.046,369.648 87.473 C 369.080 88.010,368.605 90.722,368.406 94.563 L 368.286 96.876 367.811 97.146 C 367.484 97.332,367.301 97.599,367.225 98.000 C 367.164 98.321,367.014 98.825,366.891 99.120 C 366.767 99.415,366.667 100.071,366.667 100.578 C 366.667 101.477,366.308 102.167,365.839 102.167 C 365.535 102.167,365.263 102.920,365.088 104.250 C 364.930 105.451,364.874 105.589,364.530 105.638 C 364.320 105.668,364.087 105.855,364.012 106.054 C 363.640 107.044,363.332 108.119,363.333 108.428 C 363.333 108.658,363.152 108.853,362.792 109.012 C 362.215 109.266,361.887 110.060,361.712 111.625 C 361.655 112.139,361.558 112.334,361.358 112.336 C 360.500 112.344,359.890 114.721,360.191 116.877 C 360.557 119.488,360.214 119.417,372.333 119.417 L 381.750 119.417 382.674 118.962 C 383.434 118.588,383.634 118.397,383.810 117.879 C 383.926 117.533,384.089 117.100,384.172 116.917 C 384.254 116.733,384.380 116.066,384.452 115.434 C 384.553 114.554,384.660 114.242,384.910 114.101 C 385.698 113.656,386.040 112.689,386.258 110.292 C 386.326 109.545,386.431 109.167,386.572 109.167 C 387.018 109.167,387.614 108.395,387.730 107.668 C 387.800 107.236,387.979 106.846,388.170 106.712 C 388.588 106.419,389.500 104.549,389.500 103.984 C 389.500 102.858,389.723 101.954,390.021 101.876 C 390.563 101.734,391.278 99.221,391.326 97.288 C 391.330 97.126,391.522 96.907,391.752 96.802 C 392.228 96.585,392.833 94.927,392.833 93.839 C 392.833 92.542,393.025 91.735,393.372 91.573 C 393.937 91.310,394.461 89.331,394.593 86.969 C 394.682 85.383,394.773 84.841,394.996 84.583 C 395.706 83.761,396.116 81.371,396.255 77.242 C 396.357 74.228,396.414 73.704,396.671 73.417 C 398.271 71.629,398.335 51.616,396.746 49.833 C 396.393 49.437,396.370 49.231,396.265 45.583 C 396.141 41.262,395.781 39.081,395.088 38.432 C 394.752 38.117,394.707 37.879,394.626 35.984 C 394.527 33.649,394.063 31.841,393.409 31.250 C 393.109 30.979,393.005 30.611,392.851 29.282 C 392.651 27.550,391.995 25.374,391.581 25.065 C 391.429 24.952,391.295 24.466,391.235 23.815 C 391.123 22.600,390.716 21.167,390.482 21.167 C 390.396 21.167,390.249 20.998,390.155 20.792 C 390.062 20.585,389.878 20.229,389.745 20.000 C 389.613 19.771,389.504 19.280,389.502 18.908 C 389.501 18.537,389.438 18.162,389.362 18.075 C 389.287 17.988,389.123 17.593,388.999 17.197 C 388.844 16.706,388.623 16.400,388.303 16.234 C 387.973 16.064,387.833 15.864,387.833 15.563 C 387.833 14.426,387.115 12.844,386.507 12.641 C 386.390 12.602,386.244 12.035,386.162 11.303 C 385.808 8.146,385.311 6.376,384.738 6.232 C 384.445 6.159,384.280 5.944,384.131 5.441 C 383.502 3.322,382.749 2.790,379.983 2.506 C 378.132 2.316,366.451 2.313,363.667 2.502 M68.235 14.657 C 67.212 14.902,66.580 16.000,66.319 17.987 C 66.021 20.259,66.194 104.303,66.498 104.917 C 66.809 105.544,67.114 105.784,67.755 105.906 C 68.113 105.973,68.313 106.140,68.440 106.477 C 68.805 107.442,69.330 107.500,77.773 107.500 C 88.035 107.500,89.036 107.325,89.958 105.370 L 90.408 104.417 90.512 85.417 C 90.614 66.607,90.660 65.197,91.167 65.028 C 91.462 64.929,92.000 64.292,92.000 64.042 C 92.000 63.283,92.551 62.182,92.974 62.096 C 96.112 61.454,99.180 61.322,101.417 61.731 C 103.658 62.142,103.642 62.136,103.906 62.646 C 104.041 62.906,104.379 63.214,104.659 63.330 C 105.040 63.488,105.168 63.650,105.173 63.979 C 105.176 64.220,105.286 64.604,105.417 64.833 C 105.548 65.063,105.658 65.413,105.661 65.613 C 105.664 65.813,105.873 66.138,106.125 66.336 L 106.583 66.697 106.667 85.723 C 106.743 103.048,106.775 104.802,107.028 105.333 C 107.182 105.654,107.355 106.085,107.415 106.292 C 107.713 107.329,109.289 107.500,118.500 107.499 C 128.771 107.497,128.687 107.512,129.322 105.532 L 129.679 104.417 129.630 81.667 L 129.581 58.917 129.194 57.882 C 128.950 57.229,128.690 56.810,128.487 56.746 C 128.130 56.633,128.054 56.373,127.945 54.900 C 127.838 53.455,127.234 51.884,126.685 51.621 C 126.418 51.494,126.232 51.254,126.203 50.998 C 126.177 50.770,126.014 50.246,125.841 49.833 C 125.668 49.421,125.488 48.958,125.440 48.806 C 125.393 48.653,125.149 48.428,124.898 48.306 C 124.590 48.156,124.363 47.848,124.203 47.364 C 124.025 46.826,123.824 46.577,123.406 46.378 C 123.038 46.203,122.764 45.902,122.602 45.497 C 122.371 44.920,122.162 44.770,121.130 44.440 C 120.973 44.389,120.735 44.086,120.601 43.767 C 120.406 43.299,120.223 43.150,119.659 42.998 C 119.274 42.894,118.762 42.600,118.521 42.344 C 117.900 41.684,116.643 41.000,116.052 41.000 C 115.729 41.000,115.375 40.833,115.059 40.532 C 114.080 39.596,113.241 39.334,110.855 39.220 C 109.332 39.147,108.667 39.055,108.667 38.917 C 108.667 37.553,99.517 37.492,97.917 38.846 C 97.691 39.036,97.037 39.183,95.895 39.300 C 94.966 39.395,94.066 39.549,93.895 39.643 C 93.724 39.736,93.372 39.858,93.114 39.913 C 92.837 39.971,92.531 40.209,92.370 40.490 C 92.192 40.801,91.919 40.998,91.589 41.053 C 91.311 41.100,90.955 41.189,90.797 41.252 C 90.529 41.358,90.508 40.664,90.464 30.057 C 90.413 17.819,90.436 18.119,89.526 17.889 C 89.273 17.824,89.033 17.548,88.841 17.101 C 88.493 16.289,88.298 16.113,87.448 15.839 C 87.048 15.710,86.758 15.489,86.664 15.244 C 86.583 15.029,86.367 14.774,86.186 14.677 C 85.805 14.473,69.082 14.455,68.235 14.657 M243.838 38.090 C 241.805 38.282,241.560 38.340,241.246 38.706 C 240.936 39.066,240.682 39.131,238.907 39.301 C 236.733 39.510,235.613 39.820,235.529 40.236 C 235.467 40.541,234.672 41.000,234.205 41.000 C 233.355 41.000,232.323 41.536,232.087 42.101 C 231.911 42.522,231.748 42.667,231.450 42.667 C 230.953 42.667,230.216 43.327,230.072 43.902 C 229.991 44.225,229.854 44.336,229.524 44.344 C 228.508 44.370,227.274 44.926,227.111 45.433 C 226.892 46.113,226.698 46.316,226.123 46.465 C 225.733 46.566,225.559 46.757,225.334 47.333 C 225.175 47.739,224.922 48.130,224.772 48.202 C 224.623 48.274,224.369 48.398,224.208 48.476 C 224.048 48.555,223.869 48.874,223.810 49.185 C 223.751 49.496,223.622 49.975,223.523 50.250 C 223.424 50.525,223.304 50.948,223.256 51.190 C 223.199 51.481,223.030 51.665,222.757 51.733 C 222.444 51.812,222.302 52.005,222.165 52.543 C 222.066 52.932,221.894 53.475,221.784 53.750 C 221.505 54.445,221.497 67.677,221.775 68.016 C 221.881 68.145,222.051 68.564,222.154 68.948 C 222.283 69.431,222.455 69.682,222.712 69.762 C 223.159 69.902,223.327 70.131,223.331 70.605 C 223.336 71.323,224.160 72.796,224.750 73.145 C 225.067 73.332,225.427 73.735,225.559 74.050 C 225.727 74.454,226.017 74.726,226.555 74.986 C 227.061 75.231,227.330 75.474,227.365 75.718 C 227.395 75.932,227.637 76.193,227.947 76.348 C 228.238 76.494,228.652 76.728,228.867 76.869 C 229.082 77.009,229.567 77.177,229.946 77.241 C 230.424 77.322,230.659 77.455,230.718 77.677 C 230.763 77.852,231.014 78.077,231.275 78.176 C 231.536 78.275,231.862 78.457,232.000 78.579 C 232.137 78.702,232.568 78.887,232.957 78.990 C 234.091 79.292,234.179 80.243,233.083 80.362 C 232.708 80.403,232.526 80.548,232.351 80.943 C 232.170 81.355,231.956 81.516,231.368 81.680 C 230.736 81.857,230.575 81.991,230.350 82.527 C 230.179 82.936,229.974 83.164,229.776 83.165 C 228.676 83.171,227.167 83.862,227.167 84.359 C 227.167 84.534,227.073 84.707,226.958 84.744 C 226.844 84.782,226.155 84.985,225.428 85.197 C 224.296 85.527,224.082 85.648,223.931 86.047 C 223.824 86.330,223.591 86.553,223.336 86.613 C 222.554 86.800,222.048 87.149,221.843 87.643 C 221.688 88.018,221.495 88.162,221.029 88.249 C 220.694 88.312,220.344 88.413,220.251 88.473 C 220.159 88.534,219.823 88.660,219.505 88.754 C 219.037 88.892,218.900 89.035,218.787 89.504 C 218.711 89.823,218.577 90.314,218.491 90.595 C 218.052 92.021,218.684 94.740,219.521 95.032 C 219.869 95.154,220.046 95.386,220.245 95.984 C 220.451 96.604,220.633 96.835,221.087 97.052 C 221.508 97.252,221.667 97.436,221.667 97.723 C 221.667 98.215,222.330 98.951,222.902 99.095 C 223.161 99.160,223.333 99.320,223.333 99.496 C 223.333 99.957,223.957 100.631,224.493 100.748 C 224.861 100.829,225.028 100.998,225.171 101.431 C 225.357 101.994,226.021 102.500,226.573 102.500 C 226.714 102.500,226.935 102.753,227.064 103.063 C 227.250 103.509,227.468 103.685,228.108 103.911 C 229.036 104.238,228.961 104.197,230.315 105.106 C 231.090 105.627,231.576 105.825,232.296 105.915 C 233.370 106.049,233.833 106.243,233.833 106.561 C 233.833 107.540,238.838 107.926,249.583 107.773 C 259.425 107.634,261.540 107.384,262.105 106.292 C 262.271 105.969,262.471 105.833,262.777 105.833 C 263.915 105.833,265.277 105.260,265.594 104.646 C 265.741 104.362,266.107 104.090,266.589 103.906 C 267.088 103.715,267.437 103.450,267.597 103.141 C 267.731 102.881,268.098 102.561,268.411 102.430 C 269.293 102.061,270.951 100.300,271.165 99.505 C 271.275 99.098,271.445 98.833,271.597 98.833 C 272.006 98.833,272.630 98.088,272.823 97.371 C 272.929 96.979,273.175 96.590,273.418 96.431 C 273.647 96.281,273.833 96.079,273.833 95.980 C 273.833 95.882,273.987 95.586,274.175 95.322 C 274.414 94.986,274.566 94.383,274.685 93.297 C 274.819 92.068,274.923 91.696,275.191 91.488 C 276.422 90.534,276.454 81.533,275.231 80.214 C 274.959 79.920,274.826 79.509,274.741 78.697 C 274.677 78.084,274.494 77.321,274.336 77.000 C 274.177 76.679,274.001 76.223,273.944 75.987 C 273.888 75.751,273.654 75.472,273.425 75.368 C 273.190 75.260,272.960 74.977,272.895 74.714 C 272.722 74.011,272.370 73.556,271.825 73.330 C 271.555 73.218,271.333 73.019,271.333 72.888 C 271.333 72.359,270.820 71.688,270.278 71.509 C 269.835 71.363,269.671 71.184,269.496 70.654 C 269.304 70.073,269.183 69.958,268.590 69.800 C 268.037 69.652,267.857 69.501,267.648 69.013 C 267.434 68.511,267.253 68.367,266.570 68.156 C 265.982 67.973,265.689 67.774,265.533 67.452 C 265.413 67.202,265.121 66.953,264.878 66.892 C 264.636 66.831,264.246 66.681,264.011 66.559 C 263.776 66.436,263.336 66.335,263.034 66.334 C 262.655 66.334,262.358 66.197,262.078 65.895 C 261.589 65.367,260.138 64.668,259.525 64.664 C 258.421 64.658,258.403 63.906,259.502 63.730 C 259.953 63.658,260.478 63.379,261.055 62.904 C 261.772 62.314,262.117 62.155,262.988 62.015 C 264.266 61.809,265.667 61.362,265.667 61.160 C 265.667 60.850,266.381 60.368,266.985 60.272 C 268.014 60.107,268.839 59.684,269.134 59.169 C 269.328 58.831,269.618 58.635,270.102 58.513 C 271.402 58.185,272.284 57.720,272.388 57.306 C 272.451 57.054,272.741 56.796,273.201 56.582 C 274.754 55.861,275.009 52.366,273.577 51.428 C 273.354 51.282,272.918 50.620,272.607 49.956 C 272.182 49.049,271.883 48.647,271.398 48.333 C 271.044 48.104,270.727 47.767,270.693 47.583 C 270.608 47.118,270.216 46.715,269.730 46.593 C 269.448 46.522,269.221 46.265,269.014 45.782 C 268.719 45.095,267.228 44.332,266.167 44.327 C 266.029 44.327,265.804 44.091,265.667 43.804 C 265.424 43.298,264.648 42.900,263.333 42.607 C 263.085 42.552,262.793 42.285,262.611 41.946 C 262.308 41.383,261.537 41.000,260.709 41.000 C 260.525 41.000,260.281 40.888,260.168 40.751 C 259.382 39.804,257.130 39.167,254.571 39.167 C 253.771 39.167,253.426 39.093,253.206 38.873 C 252.280 37.947,248.612 37.640,243.838 38.090 M250.574 60.704 C 250.976 61.277,250.917 61.730,250.458 61.598 C 250.252 61.539,249.558 61.451,248.917 61.402 C 247.254 61.274,247.073 61.220,246.767 60.752 L 246.492 60.333 248.403 60.333 C 250.189 60.333,250.331 60.358,250.574 60.704 M242.781 82.440 C 243.537 82.531,243.670 82.605,243.848 83.036 C 244.100 83.643,244.548 83.823,246.233 83.995 C 247.140 84.088,247.594 84.210,247.693 84.387 C 247.835 84.640,249.829 85.667,250.179 85.667 C 250.277 85.667,250.333 85.835,250.303 86.042 C 250.251 86.413,250.220 86.417,247.203 86.462 L 244.156 86.508 243.872 86.014 C 243.710 85.732,243.318 85.414,242.958 85.272 C 242.509 85.096,242.257 84.859,242.087 84.452 C 241.938 84.094,241.658 83.801,241.341 83.670 C 241.042 83.546,240.833 83.337,240.833 83.160 C 240.833 82.995,240.788 82.742,240.732 82.597 C 240.618 82.300,241.225 82.253,242.781 82.440 " stroke="none" fill="#0404fc" fill-rule="evenodd"></path><path id="path1" d="" stroke="none" fill="#0804fc" fill-rule="evenodd"></path></g></svg>