<svg xmlns="http://www.w3.org/2000/svg" version="1.1" xmlns:xlink="http://www.w3.org/1999/xlink" width="512" height="512" x="0" y="0" viewBox="0 0 512 512" style="enable-background:new 0 0 512 512" xml:space="preserve" class=""><g><g fill-rule="evenodd" clip-rule="evenodd"><path fill="#f1b44c" d="M292.902 346.018c-9.858-9.858-22.966-15.206-36.902-15.206-13.931 0-27.044 5.343-36.902 15.197a4.506 4.506 0 0 0-.001 6.371 4.508 4.508 0 0 0 6.365.002c8.149-8.15 19.019-12.574 30.539-12.574 11.514 0 22.395 4.416 30.539 12.564a4.46 4.46 0 0 0 3.183 1.318 4.49 4.49 0 0 0 3.182-1.312 4.499 4.499 0 0 0-.003-6.36zM256 271.86c-29.687 0-57.649 11.408-78.65 32.408a4.504 4.504 0 0 0 .003 6.363 4.5 4.5 0 0 0 6.37-.004c39.852-39.859 104.709-39.859 144.56 0a4.468 4.468 0 0 0 3.179 1.318 4.465 4.465 0 0 0 3.185-1.314 4.504 4.504 0 0 0 .004-6.363C313.647 283.267 285.689 271.86 256 271.86zm-120.389-9.344a4.497 4.497 0 0 0 0 6.364 4.495 4.495 0 0 0 6.364-.001c62.881-62.868 165.176-62.87 228.056 0a4.463 4.463 0 0 0 3.18 1.319 4.491 4.491 0 0 0 3.184-1.318 4.497 4.497 0 0 0 0-6.364C344.249 230.37 301.439 212.917 256 212.917c-45.435 0-88.249 17.454-120.389 49.599zm-30.52-53.222c-.01-.275-.01-.549-.01-.824 0-64.63 52.581-117.211 117.21-117.211 37.298 0 72.663 18.019 94.677 48.117a4.504 4.504 0 0 0 6.176 1.063c10.159-6.946 22.052-10.601 34.358-10.601 33.628 0 60.98 27.352 60.98 60.979a61.06 61.06 0 0 1-3.114 19.296 4.523 4.523 0 0 0 .333 3.6 4.476 4.476 0 0 0 2.863 2.188c46.7 11.374 79.435 52.855 79.435 100.945 0 57.283-46.593 103.895-103.879 103.895H117.88c-57.287 0-103.879-46.61-103.879-103.895 0-50.438 37.542-94.472 87.319-102.535 2.182-.354 3.816-2.246 3.78-4.466z" opacity="1" data-original="#92c3fe" class=""></path><path fill="#333333" d="M295.73 343.189c3.319 3.31 3.319 8.7 0 12.021a8.51 8.51 0 0 1-6.008 2.48 8.466 8.466 0 0 1-6.013-2.49c-7.347-7.352-17.189-11.393-27.709-11.393-10.521 0-20.358 4.041-27.71 11.402-3.32 3.311-8.7 3.311-12.021 0-3.32-3.32-3.32-8.711 0-12.03 10.563-10.559 24.673-16.368 39.73-16.368 15.063.001 29.172 5.81 39.731 16.378zm41.749-41.749a8.51 8.51 0 0 1 0 12.016 8.461 8.461 0 0 1-6.017 2.49 8.458 8.458 0 0 1-6.008-2.49c-38.292-38.297-100.611-38.297-138.902 0a8.503 8.503 0 0 1-12.03 0 8.511 8.511 0 0 1 0-12.016c21.66-21.65 50.591-33.58 81.479-33.58 30.892 0 59.818 11.93 81.478 33.58zm41.744-41.752c-32.742-32.741-76.499-50.771-123.223-50.771-46.719 0-90.481 18.029-123.218 50.771a8.5 8.5 0 0 0 0 12.021 8.5 8.5 0 0 0 12.021 0c61.319-61.31 161.081-61.31 222.399 0a8.461 8.461 0 0 0 6.008 2.49 8.501 8.501 0 0 0 6.013-14.511zm14.897 157.053c55.07 0 99.879-44.81 99.879-99.895 0-46.176-31.407-86.1-76.381-97.059a8.469 8.469 0 0 1-5.418-4.141 8.515 8.515 0 0 1-.627-6.796 57.048 57.048 0 0 0 2.909-18.033c0-31.421-25.559-56.979-56.98-56.979-11.521 0-22.622 3.418-32.1 9.902-3.792 2.589-8.951 1.697-11.662-2.004-21.277-29.097-55.458-46.479-91.448-46.479-62.422 0-113.211 50.789-113.211 113.211 0 .24 0 .48.01.717l.009.594a8.51 8.51 0 0 1-7.14 8.479C54.09 226.007 18 268.397 18 316.847c0 55.085 44.809 99.895 99.88 99.895h276.24zm91.372-172.583c-14.359-17.99-33.84-31.449-55.5-38.509a74.23 74.23 0 0 0 1.49-14.831c0-40.791-33.189-73.98-73.98-73.98-12.261 0-24.159 2.989-34.831 8.7-24.63-29.742-61.602-47.279-100.38-47.279-69.911 0-127.132 55.381-130.093 124.58-24.498 5.551-46.738 18.99-63.205 38.33C10.941 262.347 1 289.227 1 316.847c0 64.451 52.43 116.895 116.88 116.895h276.24c64.45 0 116.88-52.443 116.88-116.895 0-26.258-9.06-52.067-25.508-72.689z" opacity="1" data-original="#224eff" class=""></path></g></g></svg>