<?xml version="1.0"?>
<svg xmlns="http://www.w3.org/2000/svg" xmlns:xlink="http://www.w3.org/1999/xlink" xmlns:svgjs="http://svgjs.com/svgjs" version="1.1" width="512" height="512" x="0" y="0" viewBox="0 0 128 128" style="enable-background:new 0 0 512 512" xml:space="preserve" class=""><g transform="matrix(0.7999999999999999,0,0,0.7999999999999999,12.800000000000004,12.79999961853028)"><g xmlns="http://www.w3.org/2000/svg"><g fill="#fd5c70"><path d="m101.97 91.73h-75.94a1.75 1.75 0 0 1 -1.75-1.75v-16.09a1.75 1.75 0 0 1 3.5 0v14.34h72.44v-14.34a1.75 1.75 0 0 1 3.5 0v16.09a1.75 1.75 0 0 1 -1.75 1.75z" fill="#333333" data-original="#fd5c70" class=""/><path d="m101.97 61.19a1.751 1.751 0 0 1 -1.75-1.75v-12.98h-13.04a1.75 1.75 0 0 1 0-3.5h14.79a1.75 1.75 0 0 1 1.75 1.75v14.73a1.75 1.75 0 0 1 -1.75 1.75z" fill="#333333" data-original="#fd5c70" class=""/><path d="m26.03 61.19a1.75 1.75 0 0 1 -1.75-1.75v-14.73a1.75 1.75 0 0 1 1.75-1.75h14.79a1.75 1.75 0 0 1 0 3.5h-13.04v12.98a1.751 1.751 0 0 1 -1.75 1.75z" fill="#333333" data-original="#fd5c70" class=""/></g><path d="m119.483 75.644h-35.028a1.75 1.75 0 0 1 -1.75-1.75v-14.455a1.75 1.75 0 0 1 1.75-1.75h35.028a1.751 1.751 0 0 1 1.75 1.75v14.455a1.751 1.751 0 0 1 -1.75 1.75zm-33.278-3.5h31.528v-10.955h-31.528z" fill="#f1b44c" data-original="#27276d" class=""/><path d="m43.545 75.644h-35.028a1.751 1.751 0 0 1 -1.75-1.75v-14.455a1.751 1.751 0 0 1 1.75-1.75h35.028a1.75 1.75 0 0 1 1.75 1.75v14.455a1.75 1.75 0 0 1 -1.75 1.75zm-33.278-3.5h31.533v-10.955h-31.533z" fill="#f1b44c" data-original="#27276d" class=""/><path d="m64 106.711a1.751 1.751 0 0 1 -1.75-1.75v-14.976a1.75 1.75 0 0 1 3.5 0v14.976a1.751 1.751 0 0 1 -1.75 1.75z" fill="#333333" data-original="#fd5c70" class=""/><path d="m64 35.009a1.75 1.75 0 0 1 -1.75-1.75v-10.638a1.75 1.75 0 1 1 3.5 0v10.638a1.75 1.75 0 0 1 -1.75 1.75z" fill="#333333" data-original="#fd5c70" class=""/><path d="m81.514 121.587h-35.028a1.751 1.751 0 0 1 -1.75-1.75v-14.455a1.751 1.751 0 0 1 1.75-1.75h35.028a1.751 1.751 0 0 1 1.75 1.75v14.455a1.751 1.751 0 0 1 -1.75 1.75zm-33.278-3.5h31.528v-10.955h-31.528z" fill="#f1b44c" data-original="#27276d" class=""/><path d="m64 57.369a1.766 1.766 0 0 1 -.745-.166l-23.18-10.911a1.75 1.75 0 0 1 -.03-3.152l23.18-11.45a1.752 1.752 0 0 1 1.55 0l23.18 11.45a1.75 1.75 0 0 1 -.03 3.152l-23.18 10.908a1.766 1.766 0 0 1 -.745.169zm-19.152-12.7 19.152 9.016 19.152-9.014-19.152-9.46z" fill="#f1b44c" data-original="#27276d" class=""/><path d="m81.514 24.368h-35.028a1.751 1.751 0 0 1 -1.75-1.75v-14.455a1.751 1.751 0 0 1 1.75-1.75h35.028a1.751 1.751 0 0 1 1.75 1.75v14.455a1.751 1.751 0 0 1 -1.75 1.75zm-33.278-3.5h31.528v-10.955h-31.528z" fill="#f1b44c" data-original="#27276d" class=""/></g></g></svg>
