<svg xmlns="http://www.w3.org/2000/svg" version="1.1" xmlns:xlink="http://www.w3.org/1999/xlink" width="512" height="512" x="0" y="0" viewBox="0 0 512 512" style="enable-background:new 0 0 512 512" xml:space="preserve" class=""><g transform="matrix(0.8500000000000008,0,0,0.8500000000000008,38.397841644286814,43.39878420829751)"><g fill-rule="evenodd" clip-rule="evenodd"><path fill="#f1b44c" d="m440.01 446.85-1.06.63-55.17-14.79a7.1 7.1 0 0 0-5.39.71 6.972 6.972 0 0 0-3.3 4.3l-14.43 53.8c-.41 2.36-3.31 3.12-5.02 1.76l-.51-.41L299.09 382l3.71-.88c4.51-1.06 9.13-.99 13.64.04l13.17 3.03c8.39 1.93 17.14.57 24.59-3.73s13.02-11.19 15.56-19.42l5.83-18.89 66.06 101.09v.89c-.01 1.2-.65 2.16-1.64 2.72zM255.99 82.76c70.4 0 127.67 57.25 127.67 127.65s-57.28 127.64-127.67 127.64c-70.38 0-127.62-57.27-127.62-127.64-.01-70.37 57.24-127.65 127.62-127.65zm30.31 52.35c-.8-6.4-4.24-13.8-9.65-17.57-3.07-2.14-6.58-2.99-10.24-2.12-2.29.54-4.33 1.85-5.88 3.61-3.23 3.68-4.24 9.1-4.42 13.84-.36 9.65-7.65 25.56-14.61 32.22-1.58 1.51-3.21 2.94-4.86 4.36-3.92 3.39-7.45 6.61-10.65 10.72l-1.93 2.48-2.39-2.05c-2.63-2.25-5.92-3.49-9.38-3.49h-15.8c-8 0-14.49 6.53-14.49 14.52v78.33c0 7.99 6.5 14.52 14.49 14.52h15.8c4.7 0 9.09-2.29 11.8-6.13l1.92-2.72 2.51 2.19c7.62 6.65 18.52 6.65 28.03 6.65h60.15c8.21 0 14.92-6.68 14.92-14.9 0-2.96-.88-5.84-2.51-8.31l-1.82-2.76 2.93-1.54c4.89-2.58 7.95-7.64 7.95-13.19 0-2.88-.8-5.66-2.38-8.07l-1.87-2.85 3.06-1.49c5.12-2.5 8.38-7.68 8.38-13.39 0-3.05-.91-5.99-2.66-8.49l-1.88-2.7 2.86-1.63c4.66-2.65 7.61-7.6 7.61-12.99 0-8.22-6.7-14.9-14.92-14.9l-48.59-.01-.83-1.65c-2.14-4.25-3.93-8.86-4.09-13.67-.12-3.66.7-6.78 1.67-10.25 1.63-5.89 2.56-10.34 1.77-16.57zM155.04 493.9c-1.09.22-2.24-.15-3-.98l-.49-.54-14.67-54.67c-1.01-3.75-4.89-6.03-8.65-5.02l-55 14.74-.93-.37c-1.82-.73-2.53-2.96-1.44-4.6l65.63-100.42 5.77 19c2.5 8.25 8.06 15.14 15.51 19.45 7.46 4.31 16.23 5.68 24.64 3.76l13.36-3.05c4.4-1 8.96-1.09 13.37-.08l3.74.85-56.42 111.64z" opacity="1" data-original="#bde7f7" class=""></path><path fill="#333333" d="M336.36 200.08h-5.93c-2.77 0-4.98 2.24-4.98 5s2.21 5 4.98 5c4.37 0 7.9 3.54 7.9 7.9 0 4.35-3.53 7.9-7.9 7.9h-7.15c-2.77 0-5.03 2.24-5.03 5s2.26 5 5.03 5c4.33 0 7.9 3.54 7.9 7.9 0 4.35-3.57 7.9-7.9 7.9h-6.58c-2.73 0-4.99 2.24-4.99 5s2.26 4.99 4.99 4.99c4.37 0 7.9 3.55 7.9 7.91 0 4.35-3.53 7.9-7.9 7.9h-60.15c-12.89 0-21.82-.67-26.76-9.08v-76.77c0-1.39-.14-2.73-.47-4.03 3.76-5.82 7.57-9.12 11.9-12.87 1.65-1.44 3.39-2.93 5.13-4.59 7.52-7.2 16.27-24.56 16.74-37.02.09-2.96.8-9.93 4.94-10.91 1.55-.37 3.06-.02 4.61 1.06 3.29 2.31 6.07 7.52 6.68 12.67.71 5.74-.38 9.69-1.55 13.88-1.6 5.72-3.2 11.59-.47 20.57-1.55-1.97-4.28-2.59-6.49-1.31-2.4 1.38-3.2 4.44-1.83 6.83 3.1 5.39 7.99 8.37 13.73 8.37h53.66c4.37 0 7.9 3.55 7.9 7.9-.01 4.36-3.54 7.9-7.91 7.9zm-116.54 69.89c0 4.15-3.39 7.52-7.52 7.52h-15.8c-4.14 0-7.52-3.37-7.52-7.52v-78.33c0-4.15 3.39-7.52 7.52-7.52h15.8c4.14 0 7.52 3.38 7.52 7.52zm134.45-77.79c0-9.87-8.04-17.9-17.92-17.9H289.6c-5.31-10.54-4-15.33-2.21-21.77 1.32-4.71 2.82-10.06 1.88-17.78-1.03-8.01-5.31-15.73-10.91-19.66-3.95-2.72-8.32-3.61-12.65-2.58-3.62.85-12.04 4.53-12.6 20.26-.38 9.54-7.81 24.56-13.69 30.16-1.55 1.5-3.1 2.85-4.75 4.27-3.62 3.14-7.34 6.37-11.05 11.15-3.06-2.62-7.01-4.21-11.33-4.21h-15.8c-9.64 0-17.49 7.86-17.49 17.52v78.33c0 9.66 7.85 17.52 17.49 17.52h15.8c5.88 0 11.1-2.93 14.25-7.4 8.47 7.38 20.18 7.39 30 7.39h60.15c9.88 0 17.92-8.03 17.92-17.9 0-3.68-1.13-7.11-3.01-9.96 5.69-3 9.55-8.98 9.55-15.84 0-3.58-1.03-6.92-2.87-9.72 5.97-2.92 10.06-9.03 10.06-16.09 0-3.79-1.18-7.31-3.2-10.21 5.42-3.06 9.13-8.9 9.13-15.58zm-98.28 142.87c68.75 0 124.67-55.91 124.67-124.64S324.74 85.76 255.99 85.76c-68.71 0-124.62 55.92-124.62 124.65-.01 68.73 55.91 124.64 124.62 124.64zm134.64-124.64c0-74.25-60.38-134.65-134.64-134.65s-134.64 60.4-134.64 134.65c0 74.24 60.38 134.65 134.64 134.65 74.25 0 134.64-60.41 134.64-134.65zm47.87 233.85-53.94-14.46c-2.59-.7-5.31-.34-7.67 1.01-2.35 1.35-4 3.53-4.7 6.13l-14.48 54c0 .02-.14.03-.19-.01l-54.03-106.88c3.9-.92 8.04-.92 12.27.05l13.17 3.03c18.81 4.32 38-6.74 43.69-25.18l3.95-12.79 62.08 94.99c-.01.04-.1.08-.15.11zm-154.02-60.97c9.26-8.6 21.16-11.77 33.48-8.94l13.21 3.03c13.69 3.16 27.75-4.92 31.89-18.38l4.04-13.12c3.72-12.08 12.46-20.78 24.55-24.49l12.89-3.96c13.5-4.13 21.59-18.13 18.48-31.88l-3.06-13.39c-2.82-12.33.38-24.22 8.98-33.48l9.22-9.89c9.59-10.31 9.64-26.49.05-36.82l-9.36-10.07c-8.61-9.27-11.76-21.17-8.94-33.49l3.06-13.17c3.15-13.73-4.94-27.75-18.39-31.91l-13.12-4.05c-12.09-3.73-20.79-12.45-24.5-24.54l-3.95-12.92c-4.14-13.47-18.15-21.58-31.88-18.44l-13.4 3.05c-12.32 2.81-24.22-.39-33.48-9l-9.88-9.21c-10.3-9.6-26.48-9.62-36.82-.03l-10.06 9.33c-9.26 8.6-21.16 11.78-33.48 8.94l-13.17-3.03c-13.73-3.16-27.75 4.92-31.93 18.38l-4.04 13.12c-3.72 12.09-12.46 20.78-24.55 24.49l-12.89 3.96c-13.5 4.13-21.59 18.13-18.43 31.87l3.06 13.39c2.77 12.33-.42 24.22-9.03 33.48l-9.22 9.89c-9.59 10.31-9.59 26.49 0 36.82l9.31 10.07c8.61 9.27 11.76 21.17 8.94 33.49l-3.01 13.17c-3.15 13.73 4.89 27.75 18.39 31.91l13.12 4.04c12.09 3.73 20.79 12.44 24.45 24.54l4 12.91c4.09 13.47 18.11 21.57 31.84 18.44l13.4-3.05c2.92-.66 5.83-.99 8.65-.99 9.17 0 17.78 3.42 24.83 10l9.88 9.2c10.35 9.6 26.48 9.62 36.82.04zM154.45 490.96c-.05.01-.14 0-.19-.05l-14.48-53.97c-1.41-5.38-6.96-8.58-12.32-7.14l-54.04 14.48a.111.111 0 0 1-.05-.16l62.12-95.05 3.9 12.85c5.69 18.46 24.83 29.56 43.69 25.26l13.36-3.05c4.14-.94 8.23-.95 12.04-.08zm227.52-151.84c3.2-3.8 7.48-6.6 12.6-8.17l12.93-3.96c18.44-5.66 29.53-24.84 25.25-43.66l-3.06-13.39c-2.07-9 .28-17.68 6.58-24.44l9.22-9.89c13.12-14.13 13.17-36.28.05-50.44l-9.36-10.07c-6.25-6.77-8.61-15.45-6.54-24.45l3.06-13.17c4.33-18.81-6.72-38.01-25.21-43.7l-13.12-4.05c-8.79-2.72-15.14-9.09-17.87-17.92l-3.95-12.91c-5.64-18.45-24.83-29.55-43.64-25.26l-13.4 3.05c-8.98 2.05-17.68-.28-24.45-6.57l-9.88-9.21c-14.11-13.15-36.31-13.17-50.41-.05l-10.11 9.33c-6.77 6.28-15.43 8.6-24.41 6.52l-13.17-3.02c-18.81-4.33-38.05 6.73-43.74 25.17l-4.04 13.12c-2.73 8.82-9.08 15.18-17.92 17.88l-12.89 3.96c-18.48 5.66-29.58 24.84-25.3 43.66l3.06 13.39c2.07 9-.28 17.68-6.58 24.44l-9.17 9.89c-13.17 14.13-13.17 36.28-.05 50.43l9.31 10.07c6.3 6.77 8.61 15.46 6.54 24.45l-3.01 13.17c-4.33 18.81 6.73 38.01 25.16 43.7l13.12 4.05c5.03 1.56 9.26 4.3 12.46 8.01l-65.04 99.55c-2.3 3.53-2.21 8.02.28 11.44 2.45 3.42 6.68 4.92 10.77 3.83l53.99-14.46c.05-.02.09.02.09.06l14.48 53.98c1.08 4.06 4.51 6.97 8.7 7.41.38.04.71.06 1.08.06 3.76 0 7.24-2.09 8.94-5.53l54.32-107.33c1.13.78 2.21 1.63 3.24 2.6l9.88 9.2c7.1 6.59 16.18 9.88 25.25 9.88 9.08 0 18.11-3.28 25.21-9.83l10.06-9.34c.99-.9 1.98-1.72 3.06-2.46l54.27 107.28c1.74 3.44 5.17 5.53 8.94 5.53.38 0 .75-.02 1.08-.06 4.23-.44 7.62-3.35 8.75-7.41l14.44-53.97c0-.05.09-.08.14-.07l53.94 14.46c4.09 1.09 8.32-.41 10.82-3.83 2.45-3.42 2.59-7.91.28-11.44z" opacity="1" data-original="#284c77" class=""></path></g></g></svg>