<svg xmlns="http://www.w3.org/2000/svg" version="1.1" xmlns:xlink="http://www.w3.org/1999/xlink" width="512" height="512" x="0" y="0" viewBox="0 0 512 512" style="enable-background:new 0 0 512 512" xml:space="preserve" class=""><g transform="matrix(0.8,0,0,0.8,51.19990081787108,51.19999999999999)"><path fill="#f1b44c" d="M164.345 76.112c0 34.977-28.36 63.336-63.389 63.336-34.976 0-63.336-28.359-63.336-63.336 0-34.976 28.36-63.336 63.336-63.336 35.029 0 63.389 28.36 63.389 63.336z" opacity="1" data-original="#7cc558" class=""></path><path fill="#333333" d="M84.512 98.795 72.085 86.368c-3.032-3.032-3.032-7.944 0-10.977s7.944-3.032 10.977 0l6.939 6.939 28.902-28.902a7.76 7.76 0 0 1 10.977 0 7.76 7.76 0 0 1 0 10.977l-34.39 34.39a7.762 7.762 0 0 1-10.978 0zM466.617 38.908H214.354a7.762 7.762 0 0 1 0-15.524h252.263c4.286 0 7.762 3.477 7.762 7.762s-3.476 7.762-7.762 7.762zM466.617 83.876H214.354a7.762 7.762 0 0 1 0-15.524h252.263a7.763 7.763 0 0 1 0 15.524zM377.328 128.839H214.354a7.762 7.762 0 0 1 0-15.524h162.974a7.763 7.763 0 0 1 0 15.524z" opacity="1" data-original="#3f3f3f" class=""></path><path fill="#f1b44c" d="M164.345 256c0 34.977-28.36 63.336-63.389 63.336-34.976 0-63.336-28.359-63.336-63.336 0-34.976 28.36-63.336 63.336-63.336 35.029 0 63.389 28.36 63.389 63.336z" opacity="1" data-original="#7cc558" class=""></path><path fill="#333333" d="m84.512 278.686-12.427-12.427c-3.032-3.032-3.032-7.944 0-10.977s7.944-3.032 10.977 0l6.939 6.939 28.902-28.907c3.027-3.032 7.944-3.032 10.977 0a7.76 7.76 0 0 1 0 10.977l-34.39 34.395a7.763 7.763 0 0 1-10.978 0zM466.617 218.8H214.354a7.762 7.762 0 0 1 0-15.524h252.263a7.763 7.763 0 0 1 0 15.524zM466.617 263.762H214.354a7.762 7.762 0 0 1 0-15.524h252.263a7.762 7.762 0 0 1 0 15.524zM377.328 308.725H214.354a7.762 7.762 0 0 1 0-15.524h162.974a7.763 7.763 0 0 1 0 15.524z" opacity="1" data-original="#3f3f3f" class=""></path><path fill="#f1b44c" d="M164.345 435.888c0 34.977-28.36 63.336-63.389 63.336-34.976 0-63.336-28.359-63.336-63.336 0-34.976 28.36-63.336 63.336-63.336 35.029 0 63.389 28.36 63.389 63.336z" opacity="1" data-original="#7cc558" class=""></path><path fill="#333333" d="m84.512 458.572-12.427-12.427c-3.032-3.032-3.032-7.944 0-10.977s7.944-3.032 10.977 0l6.939 6.939 28.902-28.902a7.76 7.76 0 0 1 10.977 0 7.76 7.76 0 0 1 0 10.977l-34.39 34.39a7.76 7.76 0 0 1-10.978 0zM466.617 398.686H214.354a7.762 7.762 0 0 1 0-15.524h252.263a7.763 7.763 0 0 1 0 15.524zM466.617 443.649H214.354a7.762 7.762 0 0 1 0-15.524h252.263c4.286 0 7.762 3.477 7.762 7.762s-3.476 7.762-7.762 7.762zM377.328 488.617H214.354a7.762 7.762 0 0 1 0-15.524h162.974a7.763 7.763 0 0 1 0 15.524z" opacity="1" data-original="#3f3f3f" class=""></path></g></svg>