<?xml version="1.0"?>
<svg xmlns="http://www.w3.org/2000/svg" xmlns:xlink="http://www.w3.org/1999/xlink" xmlns:svgjs="http://svgjs.com/svgjs" version="1.1" width="512" height="512" x="0" y="0" viewBox="0 0 32 32" style="enable-background:new 0 0 512 512" xml:space="preserve" class=""><g><g xmlns="http://www.w3.org/2000/svg" id="BG"><path d="m26 32h-20c-3.314 0-6-2.686-6-6v-20c0-3.314 2.686-6 6-6h20c3.314 0 6 2.686 6 6v20c0 3.314-2.686 6-6 6z" fill="#ffffff00" data-original="#f5e6fe" style="" class=""/></g><g xmlns="http://www.w3.org/2000/svg" id="Layer_3"><path d="m23.267 8h-14.534c-.405 0-.733.328-.733.733v2.533c0 .406.328.734.733.734h14.533c.406 0 .734-.328.734-.733v-2.534c0-.405-.328-.733-.733-.733z" fill="#f1b44c" data-original="#d9a4fc" style="" class=""/><path d="m23.267 13.333h-14.534c-.405 0-.733.329-.733.734v9.2c0 .405.328.733.733.733h14.533c.406 0 .734-.328.734-.733v-9.2c0-.405-.328-.734-.733-.734z" fill="#f8daa6" data-original="#be63f9" style="" class=""/></g></g></svg>
