<?xml version="1.0"?>
<svg xmlns="http://www.w3.org/2000/svg" xmlns:xlink="http://www.w3.org/1999/xlink" xmlns:svgjs="http://svgjs.com/svgjs" version="1.1" width="512" height="512" x="0" y="0" viewBox="0 0 512 512" style="enable-background:new 0 0 512 512" xml:space="preserve" class=""><g><path xmlns="http://www.w3.org/2000/svg" d="m263.6921 146.6548c-58.7519 0-107.1369 47.17-107.1369 105.4907a102.2536 102.2536 0 0 0 20.737 61.7505l-12.96 39.4517 41.4717-12.8643a107.0316 107.0316 0 0 0 58.7519 17.1533c58.7522 0 107.1363-47.1709 107.1363-105.4912-.865-58.3208-49.248-105.4907-108-105.4907zm62.1209 149.4668c-3.5188 9.312-17.5955 15.7641-27.3679 15.6836-40.1535-.3311-97.6967-55.1182-97.0274-87.813a33.6761 33.6761 0 0 1 10.3487-23.938c5.5952-5.4189 18.8066-7.5986 22.4616.8672 8.9578 23.707 11.2641 24.1816 9.5039 28.3037a26.7312 26.7312 0 0 1 -7.7751 10.2915c-9.1331 6.6177 16.5459 28.4292 20.3467 31.2852 23.7434 17.84 27.1626 10.7563 28.6 9.2236 8.48-9.044 7.6115-12.2749 11.2344-13.0254 3.7568-.7778 29.2509 13.084 29.351 13.147 5.0199 3.1689 1.8739 11.3584.3241 15.9746z" fill="#00000000" data-original="#6bc45a" class=""/><path xmlns="http://www.w3.org/2000/svg" d="m312.6527 55.1167h-103.1062c-83.5955 0-151.4868 67.17-151.4868 149.8779v102.0113c0 82.707 67.8913 149.8774 151.4868 149.8774h103.1062c83.5955 0 151.4868-67.17 151.4868-149.8774v-102.0113c.0005-82.7075-67.8913-149.8779-151.4868-149.8779zm-48.9606 322.2456a132.5643 132.5643 0 0 1 -61.3447-15.438l-70.8474 22.2993 23.3273-66.8969a126.5735 126.5735 0 0 1 -18.1435-64.3233c0-69.47 57.0242-125.2168 127.0085-125.2168 69.9832-.8584 127.0077 54.8892 127.0077 124.3589s-57.0245 125.2168-127.0079 125.2168z" fill="#00000000" data-original="#6bc45a" class=""/><path xmlns="http://www.w3.org/2000/svg" d="m263.6921 127.7866c-69.9843 0-127.0085 55.7466-127.0085 125.2168a126.5735 126.5735 0 0 0 18.1435 64.3233l-23.3271 66.8969 70.8476-22.2993a132.5643 132.5643 0 0 0 61.3447 15.438c69.9834 0 127.0074-55.7471 127.0074-125.2168s-57.0242-125.2173-127.0076-124.3589zm.8633 229.85a107.0316 107.0316 0 0 1 -58.7519-17.1533l-41.4717 12.8643 12.96-39.4517a102.2536 102.2536 0 0 1 -20.737-61.7505c0-58.3208 48.385-105.4907 107.1369-105.4907s107.135 47.17 108 105.4907c0 58.3204-48.3841 105.4913-107.1363 105.4913z" fill="#f1b44c" data-original="#ffffff" class=""/><path xmlns="http://www.w3.org/2000/svg" d="m325.4885 280.147c-.1-.063-25.5942-13.9248-29.351-13.147-3.6229.75-2.7547 3.9814-11.2344 13.0254-1.437 1.5327-4.8562 8.6167-28.6-9.2236-3.8008-2.856-29.48-24.6675-20.3467-31.2852a26.7312 26.7312 0 0 0 7.7751-10.2915c1.76-4.1221-.5461-4.5967-9.5039-28.3037-3.655-8.4658-16.8664-6.2861-22.4616-.8672a33.6761 33.6761 0 0 0 -10.3487 23.938c-.6693 32.6948 56.8739 87.4819 97.0274 87.813 9.7724.08 23.8491-6.3716 27.3679-15.6836 1.5502-4.6162 4.6962-12.8057-.3241-15.9746z" fill="#f1b44c" data-original="#ffffff" class=""/><g xmlns="http://www.w3.org/2000/svg" fill="#1d1d1b"><path d="m304.2962 127.5754-4.0183 11.3169c48.7388 14.72 84.4192 59.52 84.4192 113.2383 0 65.7363-54.2837 119.2168-121.0073 119.2168-20.0318 0-39.74-4.9658-58.5767-14.7607a6.006 6.006 0 0 0 -4.5693-.4l-59.4449 18.71 19.3916-55.6093a6.0013 6.0013 0 0 0 -.51-5.045 120.0811 120.0811 0 0 1 -17.2993-61.2529c0-65.7373 54.2841-119.2178 121.082-119.2178a120.9123 120.9123 0 0 1 29.6688 3.271l2.0509-11.8339a133.7059 133.7059 0 0 0 -31.7934-3.4371c-73.2312 0-133.0083 58.2481-133.0083 131.2178a131.73 131.73 0 0 0 17.5693 64.9531l-22.4189 64.2911a5.9865 5.9865 0 0 0 7.4668 7.6992l68.5076-21.5629a137.4413 137.4413 0 0 0 61.884 14.9774c73.2307 0 133.0073-58.2485 133.0073-131.2168-.0002-58.6684-38.763-108.1245-92.4011-124.5552z" fill="#333333" data-original="#1d1d1b" class=""/><path d="m150.553 252.1306a107.5283 107.5283 0 0 0 20.0733 62.81l-11.9971 36.5194a6.0041 6.0041 0 0 0 7.478 7.6035l38.8374-12.0468a114.2116 114.2116 0 0 0 164.0313-52.0289l-10.7672-5.32a102.2028 102.2028 0 0 1 -149.1547 45.7587 6.0017 6.0017 0 0 0 -5.0307-.6885l-30.3633 9.419 9.3306-28.4033a6 6 0 0 0 -.9131-5.49 95.704 95.704 0 0 1 -19.524-58.1328c0-54.8594 45.37-99.4912 101.1368-99.4912 55.4292 0 101.1865 44.6719 102 99.4912a97.6328 97.6328 0 0 1 -5.08 31.1431l11.58 3.1553a109.818 109.818 0 0 0 5.5-34.3873c-.9107-61.4277-52.05-111.4023-113.999-111.4023-62.3853-.0003-113.1383 50.0144-113.1383 111.4909z" fill="#333333" data-original="#1d1d1b" class=""/><path d="m328.7108 275.073c-.1-.0635-27.1319-15.3428-33.792-13.9629-4.36.9024-6.1787 3.7588-7.7837 6.2793a59.4765 59.4765 0 0 1 -7.2774 9.2871c-.84.07-5.8178-.0664-19.9521-10.6865-7.2276-5.4317-18.9356-17.5186-19.8462-22.0693a33.4965 33.4965 0 0 0 9.1885-12.3536c1.96-4.5893 2.4977-5.1728-9.5132-33.038-5.6843-13.1646-24.1047-10.587-32.145-2.8a39.49 39.49 0 0 0 -12.1729 28.125c-.7527 36.733 60.42 93.9375 103.2134 93.9375 9.4653 0 28.1526-5.8725 33.1323-20.5537 1.8404-5.4079 5.6699-16.662-3.0517-22.1649zm-8.3086 18.2988c-2.87 8.4839-16.4823 12.42-21.7754 12.42-37.263 0-91.801-52.9174-91.2129-81.6914a27.7281 27.7281 0 0 1 8.5244-19.7519c3.2257-3.1231 11.21-4.521 12.7305-1.1748 5.7209 15.1274 8.9663 21.3877 9.5639 23.6328-3.9635 9.06-10.1587 8.3154-10.229 16.457-.1162 13.3008 24.4444 32.1338 24.6934 32.32 14.7255 11.0635 29.0748 18.26 36.5806 8.53a64.3125 64.3125 0 0 0 8.3134-10.8017c4.9483 1.66 17.8028 8.1191 24.5757 11.8418.4732 1.643-1.2016 6.5649-1.7646 8.2182z" fill="#333333" data-original="#1d1d1b" class=""/><path d="m418.6724 106.5757 8.3525-8.6245q-4.1476-4.34-8.6167-8.3623l-8.3437 8.6333q4.4772 3.999 8.6079 8.3535z" fill="#333333" data-original="#1d1d1b" class=""/><path d="m432.9048 104.4629-9.4 7.4614a142.3046 142.3046 0 0 1 34.6347 93.07v102.0111c0 79.3349-65.2646 143.8779-145.4863 143.8779h-103.1063a145.8293 145.8293 0 0 1 -129.1211-77.6357l-10.3672 6.0551a157.8426 157.8426 0 0 0 139.4883 83.5806h103.1064c86.8379 0 157.4863-69.9268 157.4863-155.8779v-102.0108a154.24 154.24 0 0 0 -37.2348-100.5317z" fill="#333333" data-original="#1d1d1b" class=""/><path d="m64.06 307.0054v-102.0108c0-79.3349 65.2656-143.8779 145.4873-143.8779h103.106a145.7951 145.7951 0 0 1 91.938 32.4561l7.1338-9.6509a157.7341 157.7341 0 0 0 -99.0718-34.8052h-103.1064c-86.8389 0-157.4869 69.9268-157.4869 155.8779v102.0108a153.6312 153.6312 0 0 0 14.09 64.4218l11.1-4.5922a141.7 141.7 0 0 1 -13.19-59.8296z" fill="#333333" data-original="#1d1d1b" class=""/></g></g></svg>
