<svg id="svg" version="1.1" xmlns="http://www.w3.org/2000/svg" xmlns:xlink="http://www.w3.org/1999/xlink" width="400" height="92.10526315789474" viewBox="0, 0, 400,92.10526315789474"><g id="svgg"><path id="path0" d="M350.691 18.026 C 350.108 18.109,348.966 18.438,348.153 18.756 C 347.339 19.073,346.541 19.333,346.379 19.334 C 346.090 19.334,342.743 20.969,341.083 21.920 C 339.318 22.932,337.235 24.644,335.994 26.105 C 335.614 26.551,335.029 27.227,334.693 27.605 C 333.592 28.849,333.052 29.578,332.671 30.336 C 332.464 30.747,332.109 31.332,331.881 31.636 C 331.653 31.939,331.293 32.633,331.079 33.176 C 330.866 33.720,330.543 34.355,330.360 34.587 C 330.174 34.823,329.937 35.537,329.821 36.213 C 329.704 36.885,329.398 37.809,329.127 38.306 C 328.755 38.986,328.604 39.552,328.481 40.722 C 328.393 41.563,328.245 42.775,328.152 43.417 C 327.852 45.481,327.797 47.212,327.979 48.833 C 328.077 49.704,328.241 51.167,328.343 52.083 C 328.475 53.269,328.687 54.135,329.077 55.083 C 329.379 55.817,329.718 56.867,329.830 57.417 C 329.942 57.967,330.248 58.829,330.511 59.333 C 330.773 59.837,331.142 60.587,331.331 61.000 C 332.927 64.484,338.214 70.171,340.971 71.368 C 341.399 71.554,341.900 71.842,342.083 72.008 C 342.792 72.650,345.701 74.012,346.885 74.256 C 347.544 74.392,348.503 74.689,349.016 74.916 C 351.636 76.076,361.775 75.929,365.000 74.684 C 365.688 74.419,366.625 74.116,367.083 74.011 C 367.542 73.906,368.340 73.560,368.858 73.243 C 369.376 72.926,369.864 72.666,369.942 72.666 C 370.020 72.666,370.421 72.437,370.833 72.157 C 371.246 71.877,371.921 71.465,372.333 71.239 C 374.238 70.200,378.123 66.722,379.026 65.250 C 379.307 64.792,379.674 64.267,379.842 64.083 C 380.270 63.615,381.927 60.836,382.078 60.333 C 382.146 60.104,382.422 59.478,382.690 58.942 C 382.959 58.406,383.282 57.520,383.410 56.973 C 383.538 56.427,383.753 55.809,383.889 55.602 C 385.373 53.337,385.511 41.663,384.092 38.518 C 383.766 37.798,383.500 37.062,383.500 36.884 C 383.500 36.348,383.021 34.906,382.701 34.481 C 382.537 34.262,382.271 33.654,382.110 33.129 C 381.950 32.605,381.645 31.967,381.432 31.713 C 381.220 31.458,380.875 30.912,380.667 30.500 C 379.556 28.301,373.196 22.000,372.088 22.000 C 371.968 22.000,371.506 21.749,371.060 21.443 C 370.615 21.137,369.857 20.756,369.377 20.597 C 368.897 20.438,368.460 20.238,368.407 20.152 C 368.232 19.868,367.096 19.375,366.333 19.253 C 365.921 19.186,365.093 18.919,364.493 18.659 C 362.671 17.867,354.436 17.490,350.691 18.026 M216.765 18.178 C 215.392 18.518,214.780 19.110,214.153 20.703 C 213.963 21.187,213.713 21.696,213.598 21.833 C 213.483 21.971,213.222 22.496,213.017 23.000 C 212.812 23.504,212.433 24.329,212.174 24.833 C 211.916 25.337,211.585 26.162,211.440 26.667 C 211.296 27.171,211.000 27.846,210.784 28.167 C 210.568 28.488,210.290 29.125,210.166 29.583 C 210.043 30.042,209.777 30.642,209.575 30.917 C 209.373 31.192,209.082 31.806,208.927 32.282 C 208.773 32.758,208.511 33.321,208.345 33.532 C 208.179 33.744,207.844 34.470,207.601 35.147 C 207.357 35.824,207.002 36.597,206.811 36.865 C 206.620 37.133,206.330 37.794,206.167 38.333 C 206.003 38.873,205.712 39.536,205.519 39.807 C 205.326 40.078,205.027 40.752,204.855 41.305 C 204.683 41.858,204.386 42.509,204.196 42.750 C 204.006 42.992,203.735 43.586,203.595 44.069 C 203.454 44.552,203.185 45.144,202.996 45.383 C 202.808 45.623,202.507 46.254,202.328 46.785 C 202.149 47.316,201.742 48.275,201.424 48.917 C 201.106 49.558,200.811 50.206,200.769 50.355 C 200.702 50.592,200.222 50.637,196.971 50.712 C 192.367 50.817,191.592 51.029,190.927 52.363 C 190.274 53.672,191.103 55.795,192.705 56.915 C 196.805 59.782,196.614 59.575,196.104 60.610 C 195.885 61.054,195.613 61.708,195.499 62.064 C 195.386 62.421,195.115 62.973,194.899 63.292 C 194.538 63.824,194.170 64.818,194.168 65.267 C 194.167 65.369,193.982 65.651,193.756 65.894 C 193.530 66.138,193.194 66.828,193.009 67.428 C 192.823 68.028,192.560 68.631,192.423 68.767 C 191.811 69.379,191.465 71.777,191.844 72.781 C 192.433 74.339,193.636 74.885,196.668 74.968 C 200.555 75.075,202.330 74.133,203.079 71.568 C 203.216 71.101,203.470 70.538,203.644 70.317 C 203.818 70.096,204.150 69.368,204.383 68.699 C 204.615 68.031,204.943 67.281,205.110 67.034 C 205.519 66.431,205.833 65.693,205.833 65.339 C 205.833 65.180,206.058 64.720,206.332 64.317 C 206.606 63.913,206.955 63.148,207.106 62.617 C 207.550 61.062,206.634 61.167,219.803 61.167 C 232.958 61.167,231.923 61.039,232.418 62.719 C 232.558 63.195,232.896 63.913,233.170 64.317 C 233.443 64.720,233.667 65.153,233.667 65.279 C 233.667 65.669,234.289 67.302,234.623 67.788 C 234.797 68.042,235.034 68.587,235.150 69.000 C 235.265 69.412,235.536 70.021,235.751 70.353 C 235.966 70.684,236.230 71.284,236.338 71.686 C 236.750 73.217,237.868 74.245,239.715 74.792 C 241.105 75.204,245.561 75.025,246.439 74.522 C 248.119 73.559,248.509 70.549,247.177 68.833 C 246.927 68.512,246.631 67.875,246.518 67.417 C 246.405 66.958,246.135 66.321,245.918 66.000 C 245.701 65.679,245.362 64.929,245.164 64.333 C 244.967 63.737,244.667 63.025,244.499 62.750 C 244.330 62.475,244.027 61.800,243.825 61.250 C 243.622 60.700,243.351 60.128,243.221 59.979 C 243.091 59.829,242.804 59.207,242.582 58.596 C 242.361 57.986,242.037 57.283,241.863 57.035 C 241.689 56.786,241.453 56.283,241.338 55.917 C 241.223 55.550,240.884 54.800,240.584 54.250 C 240.284 53.700,239.988 53.015,239.927 52.729 C 239.866 52.442,239.634 51.961,239.412 51.660 C 239.190 51.359,238.894 50.731,238.755 50.265 C 238.616 49.798,238.277 49.087,238.001 48.683 C 237.725 48.280,237.500 47.851,237.500 47.731 C 237.500 47.303,236.957 45.921,236.593 45.423 C 236.390 45.144,236.121 44.589,235.996 44.189 C 235.870 43.788,235.571 43.151,235.330 42.772 C 235.090 42.393,234.800 41.708,234.684 41.250 C 234.569 40.792,234.289 40.172,234.061 39.874 C 233.834 39.575,233.533 38.943,233.392 38.469 C 233.251 37.995,232.918 37.221,232.651 36.749 C 232.385 36.276,232.167 35.762,232.167 35.605 C 232.167 35.302,231.596 34.083,231.259 33.667 C 231.148 33.529,230.922 33.042,230.758 32.583 C 230.594 32.125,230.290 31.450,230.082 31.083 C 229.873 30.717,229.583 30.012,229.437 29.518 C 229.291 29.024,228.990 28.383,228.769 28.093 C 228.547 27.803,228.270 27.232,228.152 26.824 C 228.034 26.417,227.734 25.780,227.485 25.409 C 227.235 25.039,226.942 24.401,226.832 23.993 C 226.722 23.584,226.420 22.837,226.161 22.333 C 225.901 21.829,225.562 21.103,225.407 20.719 C 225.066 19.875,224.365 19.131,223.345 18.531 C 222.507 18.038,218.251 17.810,216.765 18.178 M13.729 18.806 C 11.689 19.511,10.907 22.050,12.314 23.398 C 12.617 23.688,13.213 23.939,14.160 24.175 C 14.929 24.366,15.826 24.657,16.154 24.820 C 16.902 25.193,17.940 25.446,19.333 25.594 C 19.975 25.662,20.825 25.904,21.419 26.186 C 22.070 26.496,23.006 26.749,24.086 26.908 C 25.132 27.061,26.060 27.308,26.583 27.573 C 27.070 27.819,27.972 28.071,28.750 28.177 C 30.911 28.472,31.829 29.254,32.426 31.308 C 32.570 31.802,32.878 32.508,33.111 32.877 C 33.344 33.246,33.649 34.006,33.789 34.566 C 33.929 35.125,34.259 35.879,34.522 36.241 C 34.785 36.603,35.000 36.983,35.000 37.086 C 35.000 37.495,35.522 38.998,35.740 39.216 C 35.867 39.344,36.091 39.851,36.238 40.343 C 36.384 40.836,36.702 41.538,36.944 41.905 C 37.186 42.271,37.517 43.086,37.679 43.716 C 37.841 44.345,38.162 45.144,38.391 45.491 C 38.621 45.838,38.896 46.451,39.002 46.853 C 39.109 47.255,39.406 47.958,39.661 48.417 C 39.917 48.875,40.253 49.641,40.408 50.118 C 40.562 50.596,40.856 51.233,41.061 51.535 C 41.266 51.836,41.569 52.571,41.736 53.167 C 41.903 53.762,42.188 54.461,42.371 54.718 C 42.554 54.976,42.813 55.613,42.947 56.135 C 43.081 56.657,43.370 57.346,43.588 57.667 C 43.807 57.987,44.139 58.746,44.326 59.352 C 44.513 59.958,44.824 60.655,45.017 60.901 C 45.211 61.146,45.478 61.776,45.613 62.299 C 45.747 62.822,46.044 63.537,46.273 63.889 C 46.502 64.240,46.875 65.095,47.101 65.789 C 47.328 66.483,47.660 67.257,47.840 67.509 C 48.020 67.762,48.167 68.082,48.167 68.222 C 48.167 68.362,48.415 68.951,48.718 69.533 C 49.021 70.114,49.370 70.963,49.494 71.420 C 50.347 74.562,52.082 75.614,56.167 75.465 C 59.279 75.351,60.301 74.787,60.939 72.833 C 61.104 72.329,61.357 71.729,61.503 71.500 C 61.843 70.966,62.279 69.891,62.416 69.250 C 62.475 68.975,62.738 68.412,63.000 68.000 C 63.263 67.587,63.570 66.875,63.683 66.417 C 63.796 65.958,64.050 65.321,64.247 65.000 C 64.444 64.679,64.744 63.967,64.913 63.417 C 65.082 62.867,65.397 62.149,65.613 61.822 C 65.828 61.495,66.146 60.716,66.319 60.092 C 66.492 59.467,66.706 58.910,66.794 58.853 C 67.014 58.711,67.500 57.737,67.500 57.439 C 67.500 57.304,67.757 56.711,68.070 56.119 C 68.384 55.528,68.752 54.670,68.887 54.213 C 69.023 53.756,69.362 52.940,69.640 52.399 C 69.918 51.859,70.199 51.117,70.265 50.750 C 70.330 50.383,70.571 49.837,70.799 49.536 C 71.027 49.235,71.349 48.503,71.514 47.908 C 71.679 47.314,71.964 46.637,72.147 46.404 C 72.330 46.172,72.609 45.592,72.766 45.116 C 72.924 44.640,73.299 43.800,73.598 43.250 C 73.898 42.700,74.196 41.950,74.262 41.583 C 74.328 41.217,74.553 40.711,74.762 40.460 C 74.971 40.209,75.260 39.572,75.404 39.044 C 75.548 38.515,75.824 37.793,76.017 37.437 C 76.210 37.082,76.549 36.259,76.770 35.608 C 76.991 34.957,77.358 34.144,77.584 33.803 C 77.810 33.461,78.064 32.873,78.149 32.497 C 78.233 32.121,78.491 31.529,78.721 31.181 C 78.951 30.833,79.251 30.181,79.387 29.733 C 79.523 29.284,79.905 28.405,80.234 27.780 C 80.564 27.154,80.833 26.541,80.833 26.418 C 80.833 26.294,81.091 25.681,81.406 25.055 C 83.560 20.776,81.852 18.505,76.479 18.501 C 72.795 18.499,70.500 19.880,70.500 22.101 C 70.500 22.241,70.320 22.594,70.100 22.886 C 69.880 23.178,69.570 23.904,69.410 24.500 C 69.251 25.096,68.909 25.923,68.650 26.338 C 68.391 26.754,68.091 27.501,67.985 28.000 C 67.878 28.498,67.620 29.171,67.411 29.494 C 67.203 29.818,66.905 30.532,66.750 31.081 C 66.595 31.630,66.284 32.393,66.059 32.776 C 65.835 33.159,65.510 33.967,65.337 34.570 C 65.164 35.174,64.870 35.863,64.682 36.102 C 64.494 36.341,64.217 36.978,64.065 37.518 C 63.914 38.058,63.648 38.663,63.474 38.863 C 63.301 39.063,62.963 39.869,62.724 40.654 C 62.484 41.439,62.120 42.307,61.915 42.582 C 61.710 42.858,61.447 43.489,61.331 43.985 C 61.215 44.481,60.955 45.130,60.753 45.428 C 60.550 45.727,60.293 46.333,60.180 46.777 C 60.067 47.220,59.864 47.771,59.729 48.000 C 59.306 48.719,58.880 49.741,58.753 50.340 C 58.686 50.657,58.421 51.238,58.164 51.630 C 57.907 52.023,57.606 52.724,57.495 53.187 C 57.384 53.651,57.039 54.516,56.730 55.111 C 56.420 55.705,56.119 56.487,56.061 56.849 C 55.857 58.130,55.080 57.383,54.432 55.282 C 54.220 54.595,53.898 53.820,53.717 53.558 C 53.536 53.297,53.256 52.596,53.094 52.000 C 52.932 51.404,52.591 50.598,52.335 50.208 C 52.079 49.818,51.818 49.220,51.754 48.879 C 51.690 48.539,51.454 47.947,51.230 47.564 C 51.005 47.181,50.675 46.339,50.497 45.695 C 50.318 45.050,49.991 44.255,49.770 43.930 C 49.548 43.604,49.273 42.943,49.158 42.460 C 49.042 41.978,48.773 41.318,48.559 40.994 C 48.345 40.671,48.051 39.996,47.905 39.494 C 47.759 38.993,47.431 38.208,47.178 37.750 C 46.924 37.292,46.623 36.525,46.509 36.047 C 46.396 35.569,46.093 34.856,45.836 34.464 C 45.579 34.071,45.316 33.487,45.250 33.167 C 45.185 32.846,44.877 32.042,44.566 31.380 C 44.255 30.718,44.000 30.118,43.999 30.046 C 43.996 29.613,43.598 28.609,43.272 28.214 C 43.062 27.959,42.790 27.375,42.668 26.917 C 42.547 26.458,42.229 25.645,41.963 25.110 C 41.697 24.574,41.332 23.659,41.152 23.075 C 40.972 22.492,40.722 21.913,40.597 21.787 C 40.472 21.662,40.178 21.183,39.945 20.722 C 39.446 19.738,39.038 19.440,37.451 18.900 L 36.275 18.500 25.429 18.505 C 15.491 18.510,14.512 18.536,13.729 18.806 M100.210 18.777 C 99.376 19.072,98.689 19.749,98.337 20.622 C 98.024 21.399,97.856 68.999,98.158 71.486 C 98.485 74.181,99.511 74.883,103.260 74.973 C 106.730 75.057,107.896 74.524,108.570 72.548 C 108.973 71.363,108.971 22.131,108.567 20.946 C 107.867 18.891,103.262 17.696,100.210 18.777 M131.204 18.800 C 130.076 19.164,129.213 19.862,128.819 20.730 C 128.332 21.802,128.325 71.400,128.812 72.528 C 129.198 73.423,129.470 73.669,130.894 74.411 L 132.024 75.000 141.560 75.000 C 149.690 75.000,151.243 74.961,152.090 74.739 C 152.636 74.595,154.010 74.406,155.143 74.319 C 157.629 74.127,158.429 73.960,159.542 73.395 C 160.010 73.158,160.773 72.853,161.238 72.717 C 161.703 72.580,162.421 72.266,162.833 72.017 C 163.246 71.769,163.846 71.462,164.167 71.335 C 164.487 71.208,165.124 70.856,165.581 70.552 C 166.038 70.248,166.480 70.000,166.562 70.000 C 167.415 70.000,173.209 64.222,174.083 62.500 C 174.246 62.179,174.590 61.675,174.847 61.380 C 175.105 61.084,175.390 60.573,175.480 60.244 C 175.571 59.915,175.867 59.294,176.137 58.864 C 176.407 58.435,176.721 57.671,176.834 57.167 C 176.948 56.663,177.174 56.025,177.338 55.750 C 178.936 53.060,178.937 40.258,177.339 37.583 C 177.175 37.308,176.949 36.671,176.836 36.167 C 176.723 35.662,176.457 34.977,176.243 34.644 C 176.029 34.311,175.624 33.561,175.342 32.978 C 174.254 30.726,171.647 27.587,169.230 25.619 C 168.691 25.180,167.842 24.486,167.343 24.077 C 166.845 23.668,166.378 23.333,166.307 23.333 C 166.236 23.333,165.720 23.037,165.160 22.676 C 164.601 22.314,163.867 21.928,163.530 21.818 C 163.193 21.708,162.542 21.409,162.083 21.154 C 161.625 20.900,160.817 20.613,160.288 20.517 C 159.759 20.422,159.007 20.156,158.617 19.927 C 158.201 19.684,157.426 19.442,156.745 19.345 C 156.106 19.253,154.721 19.045,153.667 18.884 C 150.783 18.442,132.526 18.373,131.204 18.800 M265.656 18.813 C 264.569 19.239,263.866 19.806,263.359 20.667 L 262.917 21.417 262.917 46.595 L 262.917 71.773 263.318 72.553 C 263.788 73.468,265.112 74.551,266.083 74.816 C 267.187 75.117,285.481 75.060,286.750 74.752 C 287.300 74.618,288.650 74.429,289.750 74.332 C 292.105 74.124,293.310 73.847,294.412 73.261 C 294.854 73.026,295.335 72.833,295.481 72.833 C 296.167 72.833,301.026 70.131,302.855 68.732 C 303.776 68.028,306.665 65.241,307.244 64.500 C 307.955 63.588,309.650 60.980,309.762 60.626 C 309.828 60.419,310.050 60.025,310.256 59.750 C 310.463 59.475,310.764 58.837,310.927 58.333 C 311.089 57.829,311.469 56.892,311.770 56.250 C 312.089 55.572,312.392 54.577,312.494 53.874 C 312.591 53.209,312.778 52.384,312.911 52.041 C 313.547 50.394,313.757 45.037,313.258 43.167 C 312.776 41.360,312.526 40.232,312.359 39.106 C 312.266 38.476,311.970 37.501,311.701 36.939 C 311.432 36.377,311.088 35.529,310.937 35.056 C 310.786 34.582,310.401 33.806,310.081 33.330 C 309.762 32.855,309.500 32.396,309.500 32.309 C 309.500 32.223,309.215 31.762,308.866 31.285 C 308.518 30.807,308.138 30.226,308.023 29.993 C 307.749 29.437,305.251 26.686,304.595 26.218 C 304.314 26.017,303.902 25.656,303.680 25.415 C 303.459 25.175,302.995 24.834,302.650 24.658 C 302.305 24.482,301.975 24.261,301.917 24.168 C 301.688 23.797,298.955 22.133,298.081 21.833 C 297.570 21.657,296.965 21.365,296.735 21.185 C 296.506 21.004,295.784 20.735,295.131 20.587 C 294.479 20.438,293.488 20.098,292.931 19.832 C 292.143 19.455,291.510 19.306,290.093 19.164 C 289.090 19.064,287.702 18.874,287.010 18.741 C 284.927 18.343,266.701 18.404,265.656 18.813 M359.831 28.762 C 360.334 28.996,361.252 29.294,361.871 29.425 C 362.490 29.555,363.420 29.887,363.938 30.164 C 364.456 30.440,364.968 30.667,365.074 30.667 C 366.035 30.667,370.964 35.929,371.709 37.750 C 371.821 38.025,372.183 38.775,372.513 39.417 C 372.966 40.298,373.140 40.878,373.224 41.789 C 373.285 42.452,373.485 43.637,373.668 44.421 C 374.084 46.206,374.087 47.266,373.679 48.935 C 373.502 49.658,373.305 50.850,373.241 51.583 C 373.161 52.489,373.019 53.065,372.798 53.379 C 372.619 53.633,372.322 54.270,372.139 54.795 C 371.956 55.320,371.671 55.900,371.506 56.083 C 371.341 56.267,371.073 56.679,370.911 56.999 C 369.947 58.902,366.558 62.200,365.000 62.750 C 364.622 62.884,364.117 63.146,363.880 63.333 C 363.642 63.520,363.028 63.794,362.515 63.942 C 362.003 64.090,361.208 64.407,360.750 64.647 C 359.930 65.076,359.863 65.083,356.583 65.075 L 353.250 65.067 352.275 64.533 C 351.738 64.240,351.132 64.000,350.928 64.000 C 350.724 64.000,350.188 63.805,349.737 63.566 C 349.286 63.328,348.617 62.980,348.250 62.794 C 347.082 62.200,345.600 61.053,344.661 60.018 C 342.690 57.845,341.495 56.260,341.258 55.502 C 341.157 55.180,340.891 54.579,340.667 54.167 C 340.302 53.495,339.721 51.210,339.332 48.917 C 339.049 47.243,339.179 44.845,339.650 43.083 C 339.749 42.717,339.905 41.955,339.998 41.391 C 340.092 40.826,340.383 39.926,340.646 39.391 C 340.908 38.855,341.212 38.141,341.321 37.804 C 341.429 37.467,341.776 36.867,342.091 36.471 C 342.406 36.074,342.664 35.684,342.665 35.604 C 342.666 35.523,342.910 35.180,343.208 34.841 C 343.506 34.502,343.975 33.965,344.250 33.646 C 344.697 33.128,345.628 32.339,347.139 31.195 C 347.961 30.574,350.185 29.556,350.993 29.432 C 351.402 29.370,352.077 29.157,352.493 28.960 C 353.715 28.381,353.802 28.367,356.417 28.352 C 358.764 28.338,358.972 28.363,359.831 28.762 M155.083 30.115 C 155.725 30.397,156.520 30.675,156.851 30.733 C 157.852 30.910,160.870 32.946,162.551 34.578 C 164.579 36.548,166.373 39.661,166.673 41.732 C 166.886 43.206,166.959 43.528,167.366 44.804 C 167.774 46.082,167.713 47.619,167.180 49.500 C 166.985 50.188,166.748 51.245,166.654 51.849 C 165.991 56.097,160.922 61.592,156.667 62.675 C 156.254 62.780,155.433 63.099,154.841 63.384 L 153.765 63.901 146.883 63.971 L 140.000 64.042 140.000 46.751 L 140.000 29.460 146.958 29.532 L 153.917 29.604 155.083 30.115 M289.250 29.982 C 289.708 30.193,290.552 30.498,291.126 30.660 C 292.157 30.953,292.397 31.086,294.833 32.724 C 296.851 34.080,299.272 36.702,299.678 37.970 C 299.786 38.307,300.052 38.822,300.270 39.113 C 300.487 39.404,300.749 40.034,300.852 40.514 C 300.955 40.993,301.255 41.842,301.519 42.401 C 301.998 43.414,302.000 43.426,302.000 46.719 L 302.000 50.021 301.505 51.052 C 301.233 51.619,300.924 52.496,300.818 53.000 C 300.712 53.504,300.494 54.104,300.334 54.333 C 300.173 54.563,299.816 55.200,299.539 55.750 C 299.263 56.300,298.878 56.893,298.685 57.067 C 298.492 57.242,298.333 57.475,298.333 57.584 C 298.333 57.980,294.648 61.222,293.857 61.523 C 293.637 61.606,293.254 61.819,293.006 61.996 C 292.758 62.173,292.036 62.463,291.402 62.642 C 290.769 62.821,289.800 63.177,289.250 63.433 L 288.250 63.899 281.292 63.970 L 274.333 64.042 274.333 46.752 L 274.333 29.463 281.375 29.531 C 288.299 29.597,288.431 29.605,289.250 29.982 M220.209 35.292 C 220.352 35.452,220.556 35.908,220.661 36.306 C 220.767 36.703,221.067 37.378,221.329 37.806 C 221.590 38.233,221.890 38.908,221.995 39.306 C 222.101 39.703,222.402 40.378,222.664 40.806 C 222.927 41.233,223.193 41.808,223.257 42.083 C 223.320 42.358,223.576 42.958,223.825 43.417 C 224.075 43.875,224.419 44.663,224.591 45.167 C 224.763 45.671,225.048 46.296,225.224 46.557 C 225.400 46.817,225.684 47.478,225.854 48.024 C 226.024 48.570,226.351 49.339,226.581 49.732 C 226.812 50.125,227.000 50.496,227.000 50.556 C 227.000 50.617,223.775 50.667,219.833 50.667 C 214.500 50.667,212.667 50.617,212.667 50.473 C 212.667 50.366,212.850 49.967,213.074 49.585 C 213.298 49.202,213.571 48.521,213.682 48.070 C 213.792 47.619,214.052 46.950,214.259 46.583 C 214.467 46.217,214.759 45.549,214.908 45.100 C 215.057 44.651,215.312 44.088,215.474 43.850 C 215.636 43.612,215.908 43.079,216.079 42.667 C 216.397 41.901,217.262 40.005,218.247 37.917 C 218.549 37.275,218.890 36.450,219.003 36.083 C 219.350 34.966,219.708 34.731,220.209 35.292 " stroke="none" fill="#048cd4" fill-rule="evenodd"></path><path id="path1" d="" stroke="none" fill="#088cd4" fill-rule="evenodd"></path></g></svg>