<svg xmlns="http://www.w3.org/2000/svg" version="1.1" xmlns:xlink="http://www.w3.org/1999/xlink" xmlns:svgjs="http://svgjs.com/svgjs" width="512" height="512" x="0" y="0" viewBox="0 0 128 128" style="enable-background:new 0 0 512 512" xml:space="preserve" class=""><g transform="matrix(0.8,0,0,0.8,12.800000381469722,12.800000381469722)"><g xmlns="http://www.w3.org/2000/svg"><g fill="#27276d"><path d="m64 122.147a58.147 58.147 0 1 1 58.147-58.147 58.213 58.213 0 0 1 -58.147 58.147zm0-112.794a54.647 54.647 0 1 0 54.647 54.647 54.708 54.708 0 0 0 -54.647-54.647z" fill="#333333" data-original="#27276d" class=""></path><path d="m64 122.144c-13.726 0-24.473-24-25-55.818a1.75 1.75 0 0 1 3.5-.058c.477 28.88 10.122 52.376 21.5 52.376 6.89 0 13.677-9.2 17.713-24a117.654 117.654 0 0 0 3.809-30.644c0-29.62-9.856-54.644-21.522-54.644-9.622 0-18.384 17.3-20.833 41.126a1.75 1.75 0 1 1 -3.482-.357c2.722-26.479 12.493-44.269 24.315-44.269 14.031 0 25.022 25.544 25.022 58.144a121.171 121.171 0 0 1 -3.933 31.573c-4.537 16.636-12.421 26.571-21.089 26.571z" fill="#333333" data-original="#27276d" class=""></path><path d="m110.557 97.581h-93.114a1.75 1.75 0 0 1 0-3.5h93.114a1.75 1.75 0 0 1 0 3.5z" fill="#333333" data-original="#27276d" class=""></path><path d="m110.557 33.919h-93.114a1.75 1.75 0 0 1 0-3.5h93.114a1.75 1.75 0 1 1 0 3.5z" fill="#333333" data-original="#27276d" class=""></path><path d="m120.394 65.75h-68.125a1.75 1.75 0 0 1 0-3.5h68.125a1.75 1.75 0 0 1 0 3.5z" fill="#333333" data-original="#27276d" class=""></path><path d="m38.087 65.75h-30.481a1.75 1.75 0 1 1 0-3.5h30.481a1.75 1.75 0 0 1 0 3.5z" fill="#333333" data-original="#27276d" class=""></path></g><path d="m109.726 99.859c-.757.965-1.551 1.9-2.367 2.811 3.6 5.815 3.676 7.849 3.62 8.309-.5.064-2.917-.018-10.245-4.856a182.479 182.479 0 0 1 -16.207-12.353c-8.235-6.918-17.28-15.27-26.155-24.141-1.958-1.959-3.882-3.918-5.758-5.853a1.75 1.75 0 1 0 -2.514 2.436c1.888 1.948 3.824 3.919 5.8 5.892 8.946 8.945 18.068 17.364 26.38 24.347a186.2 186.2 0 0 0 16.533 12.6c5.55 3.663 9.431 5.439 12.014 5.439a3.583 3.583 0 0 0 2.663-1c2.085-2.09.921-6.32-3.764-13.631z" fill="#f1b44c" data-original="#fd5c70" class=""></path><path d="m40.45 50.657a220.605 220.605 0 0 1 -18.575-23.394c-4.833-7.323-4.916-9.734-4.854-10.242.46-.062 2.5.018 8.317 3.625.913-.816 1.845-1.61 2.808-2.369-7.314-4.686-11.546-5.851-13.634-3.764-2.185 2.186-.816 6.713 4.441 14.676a223.988 223.988 0 0 0 18.88 23.792 1.75 1.75 0 1 0 2.617-2.324z" fill="#f1b44c" data-original="#fd5c70" class=""></path><path d="m45.179 69.217a10.748 10.748 0 1 1 10.748-10.748 10.76 10.76 0 0 1 -10.748 10.748zm0-18a7.248 7.248 0 1 0 7.248 7.248 7.256 7.256 0 0 0 -7.248-7.244z" fill="#f1b44c" data-original="#fd5c70" class=""></path></g></g></svg>