<svg xmlns="http://www.w3.org/2000/svg" width="100%" height="40" viewBox="0 0 215 40" fill="none"><g clip-path="url(#clip0_7_3171)"><path d="M63.8252 5.77344L53.7852 32.5335H59.3052L61.5852 26.1468H71.1585L73.4785 32.5335H78.9585L68.9185 5.77344H63.8252ZM69.4518 21.4668H63.2385L66.3185 12.8801L69.4518 21.4668Z" fill="white"></path><path d="M92.7188 25.9338C92.3321 26.5871 91.7321 27.1471 91.0121 27.5338C90.2921 27.9205 89.4655 28.1338 88.6521 28.1338C87.3721 28.1338 86.1321 27.6138 85.2121 26.7071C84.2921 25.8005 83.6921 24.5205 83.6921 22.9605C83.6921 21.4138 84.2921 20.1738 85.1988 19.3071C86.1188 18.4271 87.3588 17.9338 88.6521 17.9338C89.4921 17.9338 90.3321 18.1471 91.0655 18.5338C91.7988 18.9205 92.3988 19.4938 92.7855 20.1871L93.0788 20.7205L97.3988 18.6538L97.0921 18.0538C96.2788 16.4671 95.0521 15.2271 93.5988 14.4005C92.1455 13.5738 90.4788 13.1338 88.7455 13.1338C86.1455 13.1338 83.6521 14.0671 81.7855 15.7605C79.9188 17.4538 78.7188 19.9471 78.7188 22.9471C78.7188 25.8938 79.8655 28.3871 81.6921 30.1338C83.5188 31.8805 86.0255 32.8671 88.7055 32.8671C90.4388 32.8671 92.1321 32.4405 93.5855 31.6138C95.0521 30.7871 96.2788 29.5471 97.1188 27.9471L97.4388 27.3205L92.9988 25.4138L92.7188 25.9338Z" fill="white"></path><path d="M105.973 7.36035H100.946V13.507H97.8125V17.6537H100.946V32.5337H101.599H105.973V17.6537H109.653V13.507H105.973V7.36035Z" fill="white"></path><path d="M112.453 14.1602V32.5335H117.48V13.5068H112.453V14.1602Z" fill="white"></path><path d="M116.627 6.02628C116.16 5.73294 115.587 5.59961 114.974 5.59961C114.547 5.59961 114.16 5.65294 113.8 5.78628C113.267 5.97294 112.814 6.31961 112.52 6.78628C112.227 7.25294 112.094 7.79961 112.094 8.39961C112.094 8.79961 112.147 9.18628 112.28 9.53294C112.467 10.0529 112.827 10.5063 113.294 10.7863C113.774 11.0663 114.334 11.1996 114.96 11.1996C115.374 11.1996 115.76 11.1463 116.107 11.0263C116.64 10.8529 117.094 10.5063 117.387 10.0396C117.68 9.57294 117.827 9.01294 117.827 8.41294C117.827 8.01294 117.76 7.63961 117.64 7.29294C117.454 6.75961 117.094 6.30628 116.627 6.02628Z" fill="white"></path><path d="M129.851 13.1465C127.171 13.1465 124.664 14.1065 122.824 15.8265C120.984 17.5465 119.824 20.0398 119.824 22.9998C119.824 25.9598 120.984 28.4531 122.824 30.1865C124.664 31.9198 127.171 32.8931 129.851 32.8931C132.518 32.8931 135.024 31.9065 136.851 30.1731C138.691 28.4398 139.851 25.9465 139.837 22.9998C139.837 20.0531 138.677 17.5731 136.851 15.8398C135.011 14.1198 132.518 13.1465 129.851 13.1465ZM129.811 17.9331C131.224 17.9331 132.504 18.4531 133.437 19.3465C134.371 20.2398 134.944 21.4798 134.944 22.9998C134.944 24.5065 134.357 25.7865 133.424 26.6931C132.491 27.5998 131.211 28.1331 129.798 28.1331C128.384 28.1331 127.104 27.5998 126.171 26.6931C125.238 25.7865 124.664 24.5198 124.651 22.9998C124.651 21.4931 125.238 20.2398 126.158 19.3465C127.118 18.4665 128.398 17.9331 129.811 17.9331Z" fill="white"></path><path d="M152.772 13.1465C151.492 13.1465 150.118 13.4131 148.932 14.0398C148.425 14.3065 147.945 14.6398 147.532 15.0531V13.4931H142.465V32.5331H147.532V22.2931C147.532 21.4665 147.692 20.7998 147.945 20.2665C148.318 19.4665 148.918 18.9331 149.598 18.5731C150.278 18.2131 151.065 18.0665 151.732 18.0665C152.732 18.0665 153.585 18.3998 154.212 19.0265C154.838 19.6665 155.252 20.6398 155.252 22.0798V32.5331H160.252V21.9865C160.252 19.3198 159.558 17.1065 158.252 15.5598C156.918 13.9865 154.998 13.1465 152.772 13.1465Z" fill="white"></path><path d="M177.879 13.5065V15.5465C177.452 15.0798 176.959 14.6531 176.412 14.3065C175.252 13.5731 173.839 13.1465 172.212 13.1465C169.652 13.1465 167.252 14.1731 165.506 15.9331C163.759 17.6798 162.639 20.1731 162.652 23.0398C162.652 25.9465 163.772 28.4265 165.546 30.1598C167.306 31.8931 169.706 32.8931 172.226 32.8931C173.866 32.8931 175.279 32.4798 176.426 31.7465C176.972 31.3998 177.452 30.9865 177.879 30.5198V32.5465H182.906V13.5065H182.252H177.879ZM177.879 23.0665C177.879 24.5198 177.306 25.7731 176.386 26.6798C175.466 27.5865 174.199 28.1331 172.812 28.1331C170.012 28.1331 167.706 25.8931 167.706 23.0265C167.706 21.5731 168.279 20.3065 169.186 19.3865C170.106 18.4798 171.359 17.9198 172.772 17.9198C174.159 17.9198 175.426 18.4665 176.359 19.3598C177.279 20.2531 177.866 21.5065 177.879 22.9198V23.0665Z" fill="white"></path><path d="M197.304 13.1463C195.718 13.1463 194.331 13.533 193.171 14.2397C192.611 14.5863 192.118 14.9996 191.664 15.4663V4.90625H186.598V32.5463H191.664V30.5197C192.118 30.9997 192.611 31.4263 193.184 31.773C194.344 32.493 195.744 32.893 197.331 32.893C199.878 32.893 202.264 31.8797 204.011 30.1197C205.758 28.373 206.864 25.893 206.864 22.9996C206.864 20.093 205.758 17.613 203.998 15.8797C202.264 14.1463 199.864 13.1463 197.304 13.1463ZM201.811 22.9996C201.811 25.8796 199.544 28.133 196.744 28.133C195.291 28.133 194.038 27.5463 193.131 26.6263C192.224 25.693 191.678 24.4263 191.678 23.0397C191.678 21.6797 192.198 20.413 193.091 19.493C193.984 18.573 195.251 17.973 196.771 17.973C198.144 17.973 199.398 18.5063 200.318 19.3997C201.238 20.293 201.811 21.5463 201.811 22.9996Z" fill="white"></path><path d="M209.535 4.90625V5.55958V32.533H214.602V4.90625H209.535Z" fill="white"></path><path d="M38.7133 18.1221H6.87596C5.38026 18.1221 4.16797 19.3347 4.16797 20.8309C4.16797 22.327 5.38026 23.5397 6.87596 23.5397H38.7133C40.209 23.5397 41.4213 22.327 41.4213 20.8309C41.4213 19.3347 40.209 18.1221 38.7133 18.1221Z" fill="url(#paint0_linear_7_3171)"></path><path d="M41.1507 19.6475C40.4971 18.3021 38.8769 17.74 37.5302 18.3939L10.5142 31.5201C9.16923 32.1739 8.60732 33.7946 9.26097 35.1417C9.72951 36.1069 10.6944 36.6673 11.6987 36.6673C12.0951 36.6673 12.4998 36.5788 12.8798 36.3937L39.8975 23.2691C41.2425 22.6152 41.8044 20.9945 41.1507 19.6475Z" fill="url(#paint1_linear_7_3171)"></path><path d="M23.8289 3.52731C22.4397 2.97342 20.8638 3.65022 20.31 5.03986L9.18155 32.954C8.62783 34.3436 9.30442 35.9201 10.6936 36.4739C11.0229 36.605 11.362 36.6673 11.6962 36.6673C12.7725 36.6673 13.7899 36.0217 14.2125 34.9614L25.341 7.0473C25.8948 5.65766 25.2182 4.0812 23.8289 3.52731Z" fill="url(#paint2_linear_7_3171)"></path><path d="M36.1078 32.9817L25.3512 5.06927C24.8139 3.67307 23.2445 2.97825 21.8487 3.51575C20.4529 4.05326 19.7567 5.62152 20.2957 7.01935L31.0523 34.9318C31.4667 36.0068 32.4923 36.6672 33.5801 36.6672C33.9044 36.6672 34.2337 36.6082 34.5532 36.4853C35.9489 35.9478 36.6452 34.3796 36.1062 32.9817H36.1078Z" fill="url(#paint3_linear_7_3171)"></path><path d="M37.5601 16.5996C37.3201 16.6263 37.0535 16.6263 36.7735 16.5996H37.5601Z" fill="white"></path></g><defs><linearGradient id="paint0_linear_7_3171" x1="4.20073" y1="19.0135" x2="41.1282" y2="22.6231" gradientUnits="userSpaceOnUse"><stop stop-color="#FAD720"></stop><stop offset="1" stop-color="#FF9966"></stop></linearGradient><linearGradient id="paint1_linear_7_3171" x1="8.24036" y1="35.3793" x2="44.1445" y2="18.4908" gradientUnits="userSpaceOnUse"><stop stop-color="#31E4FA"></stop><stop offset="0.5" stop-color="#4877FF"></stop><stop offset="1" stop-color="#D775FF"></stop></linearGradient><linearGradient id="paint2_linear_7_3171" x1="9.20121" y1="35.1744" x2="24.9291" y2="5.58462" gradientUnits="userSpaceOnUse"><stop stop-color="#7D69ED"></stop><stop offset="0.51" stop-color="#F983DB"></stop><stop offset="1" stop-color="#FFC1AB"></stop></linearGradient><linearGradient id="paint3_linear_7_3171" x1="38.3227" y1="34.6729" x2="18.2658" y2="5.61413" gradientUnits="userSpaceOnUse"><stop stop-color="#FF7854"></stop><stop offset="1" stop-color="#FD267D"></stop></linearGradient><clipPath id="clip0_7_3171"><rect width="214.667" height="40" fill="white"></rect></clipPath></defs></svg>